<?xml version="1.0" encoding="UTF-8"?>
<!DOCTYPE svg PUBLIC "-//W3C//DTD SVG 1.1//EN" "http://www.w3.org/Graphics/SVG/1.1/DTD/svg11.dtd">
<!-- Creator: CorelDRAW X7 -->
<svg xmlns="http://www.w3.org/2000/svg" xml:space="preserve" width="1000px" height="179px" version="1.1" style="shape-rendering:geometricPrecision; text-rendering:geometricPrecision; image-rendering:optimizeQuality; fill-rule:evenodd; clip-rule:evenodd" viewBox="0 0 550 98" xmlns:xlink="http://www.w3.org/1999/xlink">
 <defs>
  <style type="text/css">
   <![CDATA[
    .fil0 {fill:#EC1B23}
   ]]>
  </style>
 </defs>
 <g id="Camada_x0020_1">
  <metadata id="CorelCorpID_0Corel-Layer"/>
  <g id="_563049382448">
   <path class="fil0" d="M54 82c-4,-10 -5,-10 -11,-18l-11 -17c-55,14 -33,52 24,51 51,0 78,-37 21,-51 -3,-10 1,-9 -11,-24 -10,-13 -7,-9 -10,-20l-2 -3c-16,31 30,41 12,64l-1 -4c0,-1 0,-1 -1,-3 -1,-4 -7,-12 -10,-15 -14,-15 -8,-18 -12,-22 -3,6 -5,9 -3,18 4,14 21,21 19,38 -1,4 -2,5 -4,6z"/>
   <path class="fil0" d="M449 83c-12,10 -23,2 -23,-13 -1,-16 11,-21 23,-13l0 26zm0 -32c-9,-2 -14,-4 -22,1 -24,15 -6,55 21,37 1,1 2,3 4,4 9,-4 14,-3 14,-8 -7,3 -8,-1 -8,-8l0 -59c-4,0 -13,4 -16,6 5,5 7,-2 7,11 0,5 0,11 0,16z"/>
   <path class="fil0" d="M135 91c14,3 28,4 37,-5 4,-4 6,-12 4,-19 -4,-11 -20,-14 -27,-20 -12,-8 -2,-26 14,-17 9,5 6,11 10,13 3,-3 2,-12 1,-16 -14,-3 -29,-5 -36,6 -4,5 -4,12 -1,18 3,6 7,7 13,10 6,3 12,5 15,9 5,6 3,12 -2,16 -4,4 -11,4 -17,1 -2,-1 -4,-3 -6,-5 -2,-4 -1,-6 -5,-8l0 17z"/>
   <path class="fil0" d="M376 59c8,-5 18,-8 18,6 2,31 -2,21 -6,27 3,1 19,1 22,0 -4,-7 -6,3 -6,-15 0,-5 0,-15 -1,-19 -4,-14 -19,-9 -26,-3 -2,-4 1,-3 -2,-6 -4,2 -12,4 -15,7l7 2 -1 31c-3,1 -4,0 -6,3 3,1 20,1 23,0 -7,-9 -7,9 -7,-33z"/>
   <path class="fil0" d="M246 88c-1,-5 -1,-17 -1,-24 0,-8 7,-10 14,-8 6,2 5,11 5,19 0,12 1,12 -4,15l-3 2c4,1 19,1 22,0 -2,-3 -4,-1 -6,-5 -1,-3 1,-21 -1,-28 -3,-13 -18,-12 -25,-4 0,0 -1,-1 -1,-1 0,0 0,0 0,-1l-1 -4c-4,1 -13,4 -16,7 3,2 5,0 7,4l-1 29c-3,1 -4,1 -6,3 3,1 20,1 23,0l-3 -2c-1,-1 -3,-1 -3,-2z"/>
   <path class="fil0" d="M209 84c-10,10 -26,-7 1,-13 0,4 1,10 -1,13zm11 2c-2,-9 2,-24 -3,-31 -4,-7 -14,-7 -22,-3 -10,7 -6,16 -2,13 5,-2 1,0 3,-6 2,-8 15,-9 14,7 -9,4 -22,6 -23,15 -2,14 15,14 22,8l4 4c0,-1 0,0 0,0l12 -4c3,-2 0,0 2,-3l-7 0z"/>
   <path class="fil0" d="M340 85c-2,1 -5,3 -9,2 -4,-1 -14,-11 10,-17l-1 15zm-20 -19c9,-2 5,-1 6,-7 2,-8 15,-10 14,6 -7,6 -22,6 -23,16 -2,16 15,12 23,8l3 4c4,-1 13,-4 15,-7 -2,-1 -4,0 -8,0 -2,-13 4,-30 -8,-36 -6,-3 -26,0 -22,16z"/>
   <path class="fil0" d="M481 64c2,-14 18,-15 22,0l-22 0zm29 19c-16,7 -29,7 -30,-15l31 0c1,-24 -35,-25 -40,-2 -7,34 40,31 39,17z"/>
   <path class="fil0" d="M279 54l9 0c1,9 -1,27 3,33 7,11 20,3 22,-3 -13,3 -19,4 -15,-30 6,0 11,2 14,-3 -3,-2 -8,-1 -15,-1l0 -14c-3,2 -5,8 -8,10 -3,3 -8,4 -10,8z"/>
   <path class="fil0" d="M533 88c-2,-11 -3,-43 15,-30 1,1 0,1 2,2l0 -10c-8,-2 -13,-1 -16,5l-1 -1c0,-1 0,-1 0,-1l-1 -4c-3,1 -5,2 -8,3l-6 3c0,0 -1,1 -1,1 2,1 3,0 5,2 3,2 2,28 2,28 -2,6 -3,1 -7,6 4,1 19,1 22,0 -1,-2 -3,-2 -6,-4z"/>
  </g>
 </g>
</svg>