<svg xmlns="http://www.w3.org/2000/svg" viewBox="0 0 400 130" style="enable-background:new 0 0 400 130"><g style="fill:#fff"><path d="m238.2 99.7h6.8v-20.6c0-7.58-4.5-13.64-26-10.35-2.07.32-3.09 1.62-3.09 3.6v25.43c0 1.22.61 1.91 1.82 1.91h4.98c1.22 0 1.83-.69 1.83-1.91v-21.83c1.26-.27 8.35-1.12 10.52.34.89.59 1.32 1.89 1.32 3.83v17.66c0 1.22.61 1.91 1.83 1.91"/><path d="m291.2 99.7c1.94 0 7.32.31 7.32-3.78 0-.23-.02-.59-.06-1.09-.04-.5-.06-.86-.06-1.09 0-1.22-.93-1.83-2.8-1.83-.42 0-1.02.06-1.8.17-.78.11-1.38.17-1.8.17-1.49 0-2.42-.13-2.8-.4-.54-.34-.8-1.18-.8-2.52v-13.6h7.09c1.26 0 1.57-.41 1.89-1.89l1.22-5.78h-10.21c0 0 0-6.9.001-8.17h-4.69c-2.63 0-3.94 1.35-3.94 4.06v25.3c0 7.13 3.81 10.48 11.43 10.48"/><path d="m300.7 72.1v27.57h6.81c1.22 0 1.83-.69 1.83-1.91v-29.73h-4.69c-2.63 0-3.95 1.36-3.95 4.07"/><path d="m327.5 99.7c3.43 0 5.85.1 7.26-.13 2.09-.34 3.11-1.5 3-3.49l-.39-4.84c-1.03.26-7.52.78-8.82.78-3.16 0-5.28-.69-6.35-2.06-.88-1.15-1.31-3.36-1.31-6.64 0-3 .53-5.06 1.6-6.14 1.07-1.09 3.09-1.63 6.1-1.63.84 0 2.07.06 3.71.17 1.64.11 2.88.17 3.72.17 1.14 0 1.46-.65 1.71-1.71l1.24-6.13h-11.53c-10.21 0-15.32 4.91-15.32 15.27 0 11.1 5.12 16.37 15.38 16.37"/><path d="m354.6 99.7c15.96 0 16.1-10.7 16.1-16.31 0-10.4-5.38-15.33-16.1-15.33-10.75 0-16.1 4.92-16.1 15.33 0 5.6-.16 16.31 16.1 16.31m0-24.1c7.59 0 7.32 4.82 7.32 7.83 0 3.28-.13 8.64-7.32 8.64-7.1 0-7.31-5.47-7.31-8.64 0-2.93-.48-7.83 7.31-7.83"/><path d="m392.4 89.7c.13 5.56-19.2 1.3-19.36 1.26-.06 1.08-.99 6.27 2.57 7.19 2.09.54 24.34 4.34 24.34-8.48 0-10.66-20.2-8-20.24-12.56-.06-3.77 7.4-3.11 12.28-1.88 4.58 1.15 5.61 1.02 6-.29 1.48-4.85 1.5-4.94 1.5-4.94s-27.1-8.28-27.1 7.64c0 10.96 19.91 8 20 12.1"/><path d="m303.1 64.75h3.68c1.37 0 2.48-1.11 2.48-2.48v-3.77c0-1.37-1.11-2.48-2.48-2.48h-6.16v6.25c0 1.37 1.11 2.48 2.48 2.48"/><path d="m276.8 77.6c0-6.48-4.38-9.53-14-9.53-5.41 0-9.35 1.08-11.81 3.61-2.46 2.54-3.69 6.53-3.69 11.98 0 5.49 1.27 9.59 3.8 12.3 2.53 2.71 6.53 4.06 11.98 4.06 4.46 0 8.79-.14 10.5-.4 2.18-.34 3.31-1.51 3.23-3.49v-4.68c-1.03.09-11.67 1.95-17.1.33-1.48-.44-2.82-1.3-3.31-2.63 0 0 13.52-.34 18.35-4.97 2-1.92 2-3.64 2-6.57m-9.45 2.18c-.46.23-1.62.52-3.49.86l-7.43 1.44c.08-2.67.26-4.47 1.26-5.38.99-.92 2.84-1.38 5.55-1.38 3.51 0 5.26.8 5.26 2.4 0 .99-.38 1.68-1.14 2.06"/><path d="m74.99 90.6c-16.28-.34-17.69-26.7 0-27.2 6.96-.2 14.53 5.21 16.51 1.63 1.13-2.03 3.81-6.42 3.81-6.42-.6-.55-12.4-4.63-19-4.53-32.1.52-32.2 45.3 0 45.84 6.6.12 18.4-3.98 19-4.53 0 0-2.67-4.37-3.81-6.42-1.98-3.58-9.55 1.78-16.51 1.63"/><path d="m118.5 67.78c-1.1 0-1.87.75-2.28 1.67l-7.39 16.48-7.6-16.5c-.42-.91-1.22-1.66-2.4-1.66h-5c-1.22 0-1.83.88-1.83 2.06 0 .31.13.72.4 1.26l12 24.45-8 17.34h7.56c1.22 0 2.04-.48 2.46-1.43l19.76-43.68c-1.38.03-7.62 0-7.62 0"/><path d="m136.6 67.78v-13.18h-4.75c-2.59 0-3.89.5-3.89 3.17v37.2c0 1.98 1.03 3.18 3.08 3.6 3.81.76 27.2 3.89 27.2-15.38 0-10.56-4.53-15.44-21.61-15.42m11.34 21.6c-3.25 2.37-10 2.24-11.34 2.05v-15.61-.06c.87-.34 8.26-1.17 11.34 1.66 2.7 2.48 2.74 9.97 0 11.96"/><path d="m205.6 67.78c-8.35.03-12.52 3.64-12.52 11.42v20.2h6.81c1.22 0 1.83-.7 1.83-1.92v-19.27c0-1.94 1.22-2.92 3.66-2.92h8.13v-4c0-2.1-1.89-3.55-7.9-3.53"/><path d="m190 77.3c0-6.48-4.38-9.53-14-9.53-5.41 0-9.35 1.08-11.81 3.61-2.46 2.54-3.69 6.53-3.69 11.98 0 5.49 1.27 9.59 3.8 12.3 2.54 2.71 6.53 4.06 11.98 4.06 4.46 0 8.79-.14 10.5-.4 2.18-.34 3.31-1.51 3.24-3.49v-4.68c-1.03.09-11.67 1.95-17.1.33-1.48-.44-2.82-1.3-3.31-2.63 0 0 13.52-.34 18.35-4.98 2-1.92 2-3.64 2-6.57m-9.45 2.17c-.46.23-1.62.52-3.49.86l-7.43 1.44c.08-2.67.27-4.47 1.26-5.38.99-.92 2.84-1.38 5.55-1.38 3.51 0 5.26.8 5.26 2.4 0 .99-.38 1.68-1.14 2.06"/><path d="m85.5 24.44c0-13.5-10.94-24.44-24.45-24.44-13.49 0-24.44 10.94-24.44 24.44 0 2.38.34 4.66.98 6.83.09.32.14.63.14.96 0 .37-.09.7-.23 1.05-3.29 7.87-12.88 14.44-16.75 16.81-1 .61-2.53.38-3 .14-1.67-.86-3.56-1.35-5.57-1.35-6.75 0-12.22 5.47-12.22 12.22 0 6.75 5.47 12.22 12.22 12.22 1.32 0 2.6-.21 3.79-.6.32-.11.61-.18.94-.19.31-.001.57.05.85.16 8.1 3.19 10 7.87 10.64 9.93.08.27.16.52.15.69-.02.26-.08.5-.12.77-.06.4-.09.81-.09 1.22 0 4.73 3.83 8.55 8.55 8.55 4.73 0 8.56-3.83 8.56-8.56 0-4.73-3.83-8.56-8.56-8.56-.95 0-1.86.16-2.71.45-.54.19-.9.32-1.47.4-.59.09-1.09-.3-1.55-.61-5.87-3.87-7.36-7.94-7.79-9.73-.11-.47-.12-.73-.11-.84.03-.32.2-.63.31-.94.53-1.36.83-2.84.83-4.39 0-1.15-.16-2.26-.46-3.31-.12-.42-.22-1.57.97-2.86 5.46-5.94 13.71-10 20.4-10.86.36-.04.72-.04 1.06.06.3.09.51.21.76.39 3.95 2.75 8.76 4.36 13.93 4.36 13.5 0 24.44-10.94 24.44-24.44"/><path d="m173.5 125.1h2l.4-2.1h-2z"/><path d="m178.5 125.1h2l.4-2.1h-2z"/><path d="m183.5 125.1h2l.4-2.1h-2z"/><path d="m194.3 112.3c-2.22 0-4.57 1.31-4.57 3.78 0 3.51 5.64 3.21 5.64 5.46 0 1.51-1.58 2.27-2.94 2.27-2.32 0-3.53-1.41-3.53-1.41l-1.01 1.11c0 0 1.48 1.81 4.57 1.81 2.47 0 4.6-1.58 4.6-3.78 0-3.56-5.66-3.24-5.66-5.51 0-1.61 1.63-2.22 2.89-2.22 2 0 2.92 1.04 2.92 1.04l.94-1.19c0 0-1.19-1.36-3.83-1.36"/><path d="m198.5 125.1h1.6l2.5-12.5h-1.7z"/><path d="m201.8 107.7l-.5 2.1h1.9l.4-2.1z"/><path d="m210.7 112.3c-4.18 0-7.22 3.73-7.22 7.79 0 3.14 2.27 5.24 5.69 5.24 2.62 0 4.65-1.63 4.65-1.63l-.54-1.38c0 0-1.81 1.51-4.05 1.51-2.65 0-3.98-1.73-3.98-3.86 0-.35.02-.69.1-1.06h9.54c0 0 .37-1.14.37-2.1 0-2.59-1.43-4.5-4.55-4.5m2.74 5.22h-7.79c.89-2.45 2.97-3.81 5-3.81 1.61 0 2.82.96 2.82 2.94 0 .45-.08.87-.08.87"/><path d="m232.9 112.3c-2.1 0-4.13 1.38-5.09 3.11h-.05c-.1-1.95-.96-3.11-3.26-3.11-2.15 0-4.23 1.51-5.14 3.24h-.05c-.02 0 .22-.57.32-1.11l.35-1.83h-1.66l-2.4 12.44h1.68l1.14-5.86c.49-2.62 2.69-5.34 5.29-5.34 1.6 0 2.05.92 2.05 2.1 0 .49-.07 1.16-.2 1.75l-1.44 7.34h1.68l1.16-5.88c.5-2.47 2.5-5.31 5.17-5.31 1.63 0 2.15.89 2.15 2.15 0 .47-.07 1.11-.2 1.71l-1.44 7.34h1.68l1.51-7.81c.12-.62.2-1.16.2-1.68 0-2.1-1.19-3.24-3.46-3.24"/><path d="m245.6 112.3c-2.13 0-3.68 1.21-4.55 2.57h-.05c0 0 .2-.52.29-1.06l.22-1.21h-1.61l-3.36 17.38h1.66l1.16-5.96c.12-.64.15-1.19.15-1.19h.05c.57 1.68 2.1 2.5 3.91 2.5 3.44 0 6.72-3.29 6.72-8 0-3.06-1.65-4.99-4.6-4.99m-2.27 11.52c-2.13 0-3.11-1.63-3.11-3.58 0-3.07 2.08-6.4 5.12-6.4 1.98 0 3.14 1.36 3.14 3.58 0 4-2.72 6.4-5.14 6.4"/><path d="m259.8 112.6c-.2-.05-.44-.07-.74-.07-2.05 0-3.71 1.63-4.55 3.41h-.05c0 0 .17-.54.3-1.09l.44-2.2h-1.66l-2.4 12.44h1.68l.89-4.65c.52-2.69 2.47-6.23 5.14-6.23.25 0 .44.02.62.05l.32-1.66"/><path d="m266.4 112.3c-4.18 0-7.22 3.73-7.22 7.79 0 3.14 2.27 5.24 5.69 5.24 2.62 0 4.65-1.63 4.65-1.63l-.54-1.38c0 0-1.8 1.51-4.06 1.51-2.64 0-3.98-1.73-3.98-3.86 0-.35.02-.69.1-1.06h9.54c0 0 .37-1.14.37-2.1 0-2.59-1.43-4.5-4.55-4.5m2.75 5.22h-7.79c.89-2.45 2.97-3.81 5-3.81 1.61 0 2.82.96 2.82 2.94 0 .45-.07.87-.07.87"/><path d="m285.1 112.3c-3.88 0-7.64 3.24-7.64 7.74 0 3.19 2.32 5.29 5.71 5.29 2.99 0 4.94-1.85 4.94-1.85l-.52-1.41c0 0-1.8 1.75-4.35 1.75-2.37 0-4.05-1.56-4.05-3.93 0-3.51 3-6.1 5.98-6.1 2.23 0 3.41 1.39 3.41 1.39l1.01-1.14c0 0-1.36-1.78-4.5-1.78"/><path d="m297.7 112.3c-3.88 0-7.64 3.34-7.64 7.59 0 3.19 2.3 5.44 5.69 5.44 3.83 0 7.64-3.36 7.64-7.66 0-3.14-2.32-5.36-5.69-5.36m-1.93 11.52c-2.37 0-3.98-1.66-3.98-3.98 0-3.36 2.92-6 5.88-6 2.35 0 3.98 1.61 3.98 3.91 0 3.41-2.99 6.08-5.88 6.08"/><path d="m313.2 112.3c-2.77 0-4.85 1.98-5.49 3.24h-.05c0 0 .22-.59.32-1.16l.32-1.78h-1.63l-2.42 12.44h1.68l1.11-5.76c.57-2.87 3-5.39 5.81-5.39 1.29 0 2.13.64 2.13 2.05 0 .52-.07 1.09-.2 1.66l-1.43 7.44h1.68l1.53-7.86c.12-.62.2-1.16.2-1.66 0-2.13-1.31-3.21-3.56-3.21"/><path d="m325.4 112.3c-4.18 0-7.22 3.73-7.22 7.79 0 3.14 2.27 5.24 5.69 5.24 2.62 0 4.65-1.63 4.65-1.63l-.54-1.38c0 0-1.81 1.51-4.06 1.51-2.65 0-3.98-1.73-3.98-3.86 0-.35.02-.69.1-1.06h9.54c0 0 .37-1.14.37-2.1 0-2.59-1.43-4.5-4.55-4.5m2.74 5.22h-7.79c.89-2.45 2.97-3.81 5-3.81 1.61 0 2.82.96 2.82 2.94 0 .45-.07.87-.07.87"/><path d="m338.5 112.3c-3.88 0-7.64 3.24-7.64 7.74 0 3.19 2.32 5.29 5.71 5.29 2.99 0 4.94-1.85 4.94-1.85l-.52-1.41c0 0-1.81 1.75-4.35 1.75-2.37 0-4.06-1.56-4.06-3.93 0-3.51 3-6.1 5.98-6.1 2.23 0 3.41 1.39 3.41 1.39l1.01-1.14c0 0-1.36-1.78-4.5-1.78"/><path d="m346.2 121.4c0-.32.05-.69.12-1.11l1.19-6.16h3.11l.27-1.43h-3.14l.72-3.53h-1.66l-.69 3.53h-1.66l-.27 1.43h1.63l-1.21 6.13c-.07.52-.12.96-.12 1.36 0 2.97 2 3.51 3.61 3.51.35 0 .64-.05.64-.05l.3-1.51c0 0-.27.05-.72.05-.92 0-2.13-.27-2.13-2.23"/><path d="m357 112.3c-2.6 0-4.45 1.28-4.45 1.28l.54 1.41c0 0 1.71-1.19 3.76-1.19 1.9 0 2.55.99 2.55 2.22 0 .3-.02.64-.17 1.31h-.79c-3.44 0-8.38.82-8.38 4.85 0 2 1.73 3.14 3.73 3.14 3 0 4.6-2.79 4.55-2.79h.05c0 0-.15.44-.27 1.06l-.3 1.43h1.61l1.53-7.84c.1-.49.15-.94.15-1.36 0-2.45-1.63-3.54-4.1-3.54m1.9 6.87c-.49 2.18-2.4 4.72-4.72 4.72-1.66 0-2.4-.92-2.4-1.93 0-3 4.43-3.24 6.5-3.24h.72l-.1.45"/><path d="m374.6 107.7l-1.19 6.08c-.1.52-.1 1.04-.1 1.04h-.05c-.55-1.66-2.1-2.47-3.83-2.47-3.54 0-6.82 3.29-6.82 8 0 3.07 1.63 4.99 4.62 4.99 2.08 0 3.71-1.26 4.52-2.6h.05c0 0-.17.44-.27.99l-.25 1.31h1.63l3.36-17.38h-1.68m-7.09 16.2c-1.98 0-3.16-1.36-3.16-3.58 0-4 2.74-6.4 5.17-6.4 2.15 0 3.09 1.58 3.09 3.51 0 3.07-2 6.48-5.09 6.48"/><path d="m383.9 112.3c-3.88 0-7.64 3.34-7.64 7.59 0 3.19 2.3 5.44 5.69 5.44 3.83 0 7.64-3.36 7.64-7.66 0-3.14-2.32-5.36-5.69-5.36m-1.93 11.52c-2.37 0-3.98-1.66-3.98-3.98 0-3.36 2.92-6 5.88-6 2.35 0 3.98 1.61 3.98 3.91 0 3.41-2.99 6.08-5.88 6.08"/><path d="m396.2 112.3c-2.23 0-4.57 1.31-4.57 3.78 0 3.51 5.64 3.21 5.64 5.46 0 1.51-1.58 2.27-2.94 2.27-2.32 0-3.53-1.41-3.53-1.41l-1.01 1.11c0 0 1.48 1.81 4.57 1.81 2.47 0 4.6-1.58 4.6-3.78 0-3.56-5.66-3.24-5.66-5.51 0-1.61 1.63-2.22 2.89-2.22 2 0 2.92 1.04 2.92 1.04l.94-1.19c0 0-1.19-1.36-3.83-1.36"/></g></svg>