<?xml version="1.0" encoding="UTF-8" standalone="no"?>
<!-- Generator: Adobe Illustrator 26.0.3, SVG Export Plug-In . SVG Version: 6.00 Build 0)  -->

<svg
   version="1.1"
   id="svg2"
   x="0px"
   y="0px"
   viewBox="0 0 283.5 155.9"
   style="enable-background:new 0 0 283.5 155.9;"
   xml:space="preserve"
   sodipodi:docname="Slimbook_White.svg"
   inkscape:export-filename="../b3a5cf33/Slimbook-FullBlack.pdf"
   inkscape:export-xdpi="202.084"
   inkscape:export-ydpi="202.084"
   inkscape:version="1.2.2 (732a01da63, 2022-12-09, custom)"
   xmlns:inkscape="http://www.inkscape.org/namespaces/inkscape"
   xmlns:sodipodi="http://sodipodi.sourceforge.net/DTD/sodipodi-0.dtd"
   xmlns="http://www.w3.org/2000/svg"
   xmlns:svg="http://www.w3.org/2000/svg"><defs
   id="defs250">
		
			
		
		
		
		
		
		
		
		
		
	</defs>
<style
   type="text/css"
   id="style198">
	.st0{fill-rule:evenodd;clip-rule:evenodd;}
	.st1{fill-rule:evenodd;clip-rule:evenodd;fill:#FFFFFF;}
	.st2{fill:#009BDE;}
	.st3{fill:#FFFFFF;}
</style>
<sodipodi:namedview
   bordercolor="#666666"
   borderopacity="1.0"
   fit-margin-bottom="0"
   fit-margin-left="0"
   fit-margin-right="0"
   fit-margin-top="0"
   id="namedview4"
   inkscape:current-layer="g8"
   inkscape:cx="144.78011"
   inkscape:cy="59.573743"
   inkscape:deskcolor="#d1d1d1"
   inkscape:document-units="mm"
   inkscape:guide-bbox="true"
   inkscape:pagecheckerboard="0"
   inkscape:pageopacity="0.0"
   inkscape:pageshadow="2"
   inkscape:showpageshadow="2"
   inkscape:snap-grids="false"
   inkscape:snap-intersection-paths="true"
   inkscape:snap-midpoints="false"
   inkscape:snap-nodes="false"
   inkscape:snap-others="false"
   inkscape:window-height="1376"
   inkscape:window-maximized="1"
   inkscape:window-width="2488"
   inkscape:window-x="72"
   inkscape:window-y="27"
   inkscape:zoom="2.8284273"
   pagecolor="#ffffff"
   showgrid="false"
   showguides="false"
   units="mm">
	<sodipodi:guide
   id="guide5077"
   inkscape:locked="false"
   orientation="0,-1"
   position="331.94371,183.97041" />
	<sodipodi:guide
   id="guide5079"
   inkscape:locked="false"
   orientation="0,-1"
   position="510.2637,130.17587" />
	<sodipodi:guide
   id="guide5081"
   inkscape:locked="false"
   orientation="1,0"
   position="332.22462,258.51798" />
	<sodipodi:guide
   id="guide5083"
   inkscape:locked="false"
   orientation="1,0"
   position="534.12361,209.77832" />
	<sodipodi:guide
   id="guide5792"
   inkscape:locked="false"
   orientation="0,-1"
   position="492.05254,191.96219" />
	<sodipodi:guide
   id="guide5794"
   inkscape:locked="false"
   orientation="1,0"
   position="163.53827,186.97359" />
	<sodipodi:guide
   id="guide122"
   inkscape:locked="false"
   orientation="0,-1"
   position="-225.39141,122.79665" />
	<sodipodi:guide
   id="guide13094"
   inkscape:locked="false"
   orientation="1,0"
   position="452.19479,48.174788" />
	<sodipodi:guide
   id="guide13096"
   inkscape:locked="false"
   orientation="1,0"
   position="74.599765,56.306516" />
</sodipodi:namedview>
<g
   id="g8"
   transform="matrix(1.3333333,0,0,1.3333333,-76.225163,-125.26389)"
   inkscape:groupmode="layer"
   inkscape:label="carton_box_BOOU">
	<g
   id="g10"
   transform="matrix(1.0629788,0,0,0.9906678,104.51197,-6.5717486)"
   inkscape:export-filename="/home/practicas/Escritorio/DISEÑOS/MATERIAL DISEÑOS/BOOU/cabeza_ping_negra.png"
   inkscape:export-xdpi="202.08389"
   inkscape:export-ydpi="202.08389"
   style="stroke:none;stroke-opacity:1;stroke-width:0.248007;stroke-dasharray:none;fill:#ffffff;fill-opacity:1">
			<path
   id="path80"
   class="st0"
   d="m 116.4,102.4 c -14.2,0.2 -31.6,6.8 -40.3,6.6 -8.1,-0.2 -24.1,-2.1 -30.3,3.3 -2.6,2.3 13.4,1.6 31.3,11.5 18.9,10.5 20,20.2 20,20.2 0,0 -9.7,8 -12.8,15 4.7,0 5.7,0.1 5.7,0.1 0.7,-1 1.7,-2.1 2.6,-3.3 0.9,-1.1 2,-2.3 3.2,-3.4 1.2,-1.1 2.5,-2.2 4,-3.1 0.7,-0.5 1.5,-0.9 2.3,-1.4 0.8,-0.4 1.6,-0.8 2.5,-1.2 0.9,-0.3 1.8,-0.7 2.7,-0.9 0.9,-0.3 1.9,-0.5 3,-0.6 1,-0.1 2,-0.2 3,-0.1 1,0.1 2,0.2 2.9,0.4 1,0.2 1.9,0.5 2.8,0.9 0.9,0.4 1.8,0.8 2.7,1.3 0.9,0.5 1.7,1 2.5,1.6 0.8,0.6 1.6,1.2 2.4,1.9 1.5,1.3 3,2.8 4.3,4.3 1.3,1.5 1.2,2.1 2.2,3.5 h 19.1 c 0,0 -1.9,-43.2 -23.2,-54.2 -3.5,-1.9 -7.9,-2.5 -12.6,-2.4 z m -4.5,12 c 1.8,0 3.6,0.7 3.4,2.4 -0.2,1.5 -1.7,1.9 -3.3,2 -1.8,0.1 -3.2,-0.6 -3.4,-2.2 0,-1.5 1.1,-2.2 3.3,-2.2 z m -44.8,0.2 c 13.4,-0.1 19.9,2.2 23.3,4.2 4.5,2.6 2.7,5.5 -1.8,4.7 -7,-1.3 -6.4,-4 -21.5,-8.9 z"
   style="stroke:none;stroke-opacity:1;stroke-width:0.248007;stroke-dasharray:none;fill:#ffffff;fill-opacity:1" />
			<path
   id="path82"
   class="st1"
   d="m 116.4,102.4 c -14.2,0.2 -31.6,6.8 -40.3,6.6 -8.1,-0.2 -24.1,-2.1 -30.3,3.3 -2.6,2.3 13.4,1.6 31.3,11.5 18.9,10.5 20,20.2 20,20.2 0,0 -9.7,8 -12.8,15 4.7,0 5.7,0.1 5.7,0.1 0.7,-1 1.7,-2.1 2.6,-3.3 0.9,-1.1 2,-2.3 3.2,-3.4 1.2,-1.1 2.5,-2.2 4,-3.1 0.7,-0.5 1.5,-0.9 2.3,-1.4 0.8,-0.4 1.6,-0.8 2.5,-1.2 0.9,-0.3 1.8,-0.7 2.7,-0.9 0.9,-0.3 1.9,-0.5 3,-0.6 1,-0.1 2,-0.2 3,-0.1 1,0.1 2,0.2 2.9,0.4 1,0.2 1.9,0.5 2.8,0.9 0.9,0.4 1.8,0.8 2.7,1.3 0.9,0.5 1.7,1 2.5,1.6 0.8,0.6 1.6,1.2 2.4,1.9 1.5,1.3 3,2.8 4.3,4.3 1.3,1.5 1.2,2.1 2.2,3.5 h 19.1 c 0,0 -1.9,-43.2 -23.2,-54.2 -3.5,-1.9 -7.9,-2.5 -12.6,-2.4 z m -4.5,12 c 1.8,0 3.6,0.7 3.4,2.4 -0.2,1.5 -1.7,1.9 -3.3,2 -1.8,0.1 -3.2,-0.6 -3.4,-2.2 0,-1.5 1.1,-2.2 3.3,-2.2 z m -44.8,0.2 c 13.4,-0.1 19.9,2.2 23.3,4.2 4.5,2.6 2.7,5.5 -1.8,4.7 -7,-1.3 -6.4,-4 -21.5,-8.9 z"
   style="stroke:none;stroke-opacity:1;stroke-width:0.248007;stroke-dasharray:none;fill:#ffffff;fill-opacity:1" />
		</g><path
   id="path123"
   class="st2"
   d="m 57.9,185.8 v -5.3 h 11 c 1.7,0 3.1,-0.4 4.2,-1.2 1.1,-0.8 1.6,-1.8 1.6,-3 0,-0.6 -0.1,-1.2 -0.4,-1.7 -0.3,-0.5 -0.7,-1 -1.2,-1.3 -0.5,-0.4 -1.1,-0.7 -1.8,-0.9 -0.7,-0.2 -1.5,-0.3 -2.3,-0.3 h -2.5 c -1.3,0 -2.5,-0.2 -3.6,-0.6 -1.1,-0.4 -2,-1 -2.8,-1.7 -0.8,-0.7 -1.4,-1.6 -1.9,-2.6 -0.5,-1 -0.7,-2.1 -0.7,-3.3 0,-1.2 0.2,-2.3 0.7,-3.3 0.5,-1 1.2,-1.9 2,-2.6 0.9,-0.7 1.9,-1.3 3.1,-1.7 1.2,-0.4 2.5,-0.7 4,-0.7 h 10.4 v 5.3 H 66.8 c -1.2,0 -2.1,0.3 -2.7,0.9 -0.7,0.6 -1,1.3 -1,2.2 0,0.9 0.3,1.7 1,2.3 0.7,0.6 1.6,0.9 2.7,0.9 h 3.1 c 1.4,0 2.7,0.2 3.9,0.7 1.2,0.4 2.2,1.1 3.1,1.9 0.9,0.8 1.5,1.8 2,2.9 0.5,1.1 0.7,2.4 0.7,3.7 0,1.4 -0.3,2.6 -0.8,3.8 -0.5,1.1 -1.2,2.1 -2.2,2.9 -0.9,0.8 -2.1,1.5 -3.4,1.9 -1.3,0.5 -2.8,0.7 -4.4,0.7 H 57.9 Z"
   style="fill:#009bde;stroke:none;stroke-opacity:1;stroke-width:0.248007;stroke-dasharray:none;fill-opacity:1" /><path
   id="path125"
   class="st2"
   d="m 82.3,185.8 v -30.3 h 5.4 v 25 h 8.5 v 5.3 z"
   style="fill:#009bde;stroke:none;stroke-opacity:1;stroke-width:0.248007;stroke-dasharray:none;fill-opacity:1" /><path
   id="path127"
   class="st2"
   d="m 98.4,185.8 v -30.3 h 5.5 v 30.3 z"
   style="fill:#009bde;stroke:none;stroke-opacity:1;stroke-width:0.248007;stroke-dasharray:none;fill-opacity:1" /><path
   id="path129"
   class="st2"
   d="m 125.2,156.9 c 0.4,-0.6 0.8,-1 1.4,-1.2 0.6,-0.3 1.1,-0.4 1.7,-0.4 0.7,0 1.3,0.2 1.7,0.7 0.4,0.5 0.6,1.1 0.6,1.9 v 18.4 L 144,156.8 c 0.4,-0.6 0.8,-1 1.4,-1.2 0.6,-0.3 1.2,-0.4 1.8,-0.4 0.7,0 1.3,0.2 1.7,0.7 0.4,0.5 0.6,1.1 0.6,1.9 v 27.9 H 144 v -20.4 l -12.2,18.6 c -0.5,0.7 -0.9,1.2 -1.5,1.4 -0.5,0.3 -1.1,0.4 -1.6,0.4 -0.5,0 -0.9,-0.1 -1.4,-0.2 -0.4,-0.2 -0.8,-0.4 -1.1,-0.7 -0.3,-0.3 -0.6,-0.7 -0.8,-1.1 -0.2,-0.4 -0.3,-0.9 -0.3,-1.4 v -17 l -13.4,20.4 h -6.5 z"
   style="fill:#009bde;stroke:none;stroke-opacity:1;stroke-width:0.248007;stroke-dasharray:none;fill-opacity:1" /><path
   id="path131"
   class="st2"
   d="m 158.5,160.7 v 19.8 h 4.8 c 1.9,0 3.4,-0.3 4.6,-0.9 1.2,-0.6 1.8,-1.5 1.8,-2.8 0,-1.3 -0.4,-2.2 -1.2,-2.8 -0.8,-0.6 -1.8,-0.9 -3,-0.9 h -3.8 v -5.2 h 3.8 c 1.2,0 2.1,-0.3 2.8,-0.9 0.7,-0.6 1,-1.5 1,-2.7 0,-1.2 -0.5,-2.1 -1.4,-2.7 -0.9,-0.5 -2.4,-0.8 -4.6,-0.8 z m 11.9,9.1 c 0.8,0.4 1.5,0.8 2.1,1.4 0.6,0.5 1.1,1.1 1.4,1.7 0.3,0.6 0.6,1.3 0.7,1.9 0.2,0.7 0.2,1.3 0.2,1.9 0,1.2 -0.3,2.4 -0.8,3.5 -0.5,1.1 -1.2,2 -2.3,2.9 -1,0.8 -2.3,1.4 -3.9,1.9 -1.6,0.5 -3.4,0.7 -5.5,0.7 H 153 v -30.3 h 10.6 c 3.5,0 6.2,0.6 8,1.9 1.8,1.3 2.8,3.3 2.8,5.9 0,0.6 -0.1,1.2 -0.2,1.9 -0.1,0.6 -0.3,1.2 -0.6,1.8 -0.3,0.6 -0.7,1.1 -1.2,1.6 -0.6,0.6 -1.2,1 -2,1.3 z"
   style="fill:#009bde;stroke:none;stroke-opacity:1;stroke-width:0.248007;stroke-dasharray:none;fill-opacity:1" /><path
   id="path133"
   class="st2"
   d="m 191,185.6 c -2.1,0 -4.1,-0.4 -5.9,-1.2 -1.8,-0.8 -3.3,-1.9 -4.6,-3.3 -1.3,-1.4 -2.3,-3 -3,-4.9 -0.7,-1.9 -1.1,-3.9 -1.1,-6.1 0,-2.2 0.3,-4.1 1,-6 0.7,-1.8 1.7,-3.4 2.9,-4.7 1.3,-1.3 2.8,-2.3 4.6,-3.1 1.8,-0.7 3.8,-1.1 5.9,-1.1 h 0.8 c 2.2,0 4.2,0.4 5.9,1.1 1.8,0.7 3.3,1.7 4.6,3.1 1.3,1.3 2.3,2.9 2.9,4.7 0.7,1.8 1,3.8 1,5.9 0,2.2 -0.4,4.2 -1.1,6.1 -0.7,1.9 -1.7,3.5 -3,4.9 -1.3,1.4 -2.8,2.5 -4.6,3.3 -1.8,0.8 -3.7,1.2 -5.8,1.2 z m 0,-24.9 c -1.4,0 -2.6,0.2 -3.8,0.7 -1.2,0.5 -2.2,1.2 -3,2 -0.8,0.9 -1.5,1.9 -2,3.1 -0.5,1.2 -0.7,2.6 -0.7,4 0,1.4 0.2,2.7 0.7,3.9 0.5,1.2 1.1,2.2 2,3.1 0.8,0.9 1.8,1.5 3,2 1.2,0.5 2.5,0.7 3.9,0.7 h 0.8 c 1.4,0 2.7,-0.2 3.9,-0.7 1.2,-0.5 2.2,-1.2 3,-2 0.8,-0.9 1.5,-1.9 1.9,-3.1 0.5,-1.2 0.7,-2.5 0.7,-3.9 0,-1.4 -0.2,-2.8 -0.7,-4 -0.5,-1.2 -1.1,-2.3 -2,-3.1 -0.8,-0.9 -1.8,-1.6 -3,-2.1 -1.2,-0.5 -2.4,-0.7 -3.8,-0.7 H 191 Z"
   style="fill:#009bde;stroke:none;stroke-opacity:1;stroke-width:0.248007;stroke-dasharray:none;fill-opacity:1" /><path
   id="path135"
   class="st2"
   d="m 223.3,185.8 c -2.1,0 -4.1,-0.4 -5.9,-1.2 -1.8,-0.8 -3.3,-1.9 -4.6,-3.3 -1.3,-1.4 -2.3,-3 -3,-4.9 -0.7,-1.9 -1.1,-3.9 -1.1,-6.1 0,-2.2 0.3,-4.2 1,-6 0.7,-1.8 1.7,-3.4 2.9,-4.7 1.3,-1.3 2.8,-2.3 4.6,-3.1 1.8,-0.7 3.8,-1.1 5.9,-1.1 h 0.8 c 2.2,0 4.2,0.4 5.9,1.1 1.8,0.7 3.3,1.7 4.6,3.1 1.3,1.3 2.3,2.9 2.9,4.7 0.7,1.8 1,3.8 1,5.9 0,2.2 -0.4,4.2 -1.1,6.1 -0.7,1.9 -1.7,3.5 -3,4.9 -1.3,1.4 -2.8,2.5 -4.6,3.3 -1.8,0.8 -3.7,1.2 -5.8,1.2 h -0.5 z m 0,-25 c -1.4,0 -2.6,0.2 -3.8,0.7 -1.2,0.5 -2.2,1.2 -3,2.1 -0.8,0.9 -1.5,1.9 -2,3.1 -0.5,1.2 -0.7,2.6 -0.7,4 0,1.4 0.2,2.7 0.7,3.9 0.5,1.2 1.1,2.2 2,3.1 0.8,0.9 1.8,1.5 3,2 1.2,0.5 2.5,0.7 3.9,0.7 h 0.8 c 1.4,0 2.7,-0.2 3.9,-0.7 1.2,-0.5 2.2,-1.2 3,-2 0.8,-0.9 1.5,-1.9 1.9,-3.1 0.5,-1.2 0.7,-2.5 0.7,-3.9 0,-1.4 -0.2,-2.8 -0.7,-4 -0.5,-1.2 -1.1,-2.3 -2,-3.1 -0.8,-0.9 -1.8,-1.6 -3,-2.1 -1.2,-0.5 -2.4,-0.7 -3.8,-0.7 z"
   style="fill:#009bde;stroke:none;stroke-opacity:1;stroke-width:0.248007;stroke-dasharray:none;fill-opacity:1" /><path
   id="path137"
   class="st2"
   d="m 253.8,173.5 -7.3,10.9 c -0.4,0.6 -0.8,1 -1.4,1.2 -0.5,0.2 -1.1,0.3 -1.7,0.3 -0.7,0 -1.3,-0.2 -1.7,-0.7 -0.4,-0.5 -0.6,-1.1 -0.6,-1.9 v -27.9 h 5.5 v 20.4 L 260,155.4 h 6.5 l -9.3,13.3 12.8,16.9 h -7.4 z"
   style="fill:#009bde;stroke:none;stroke-opacity:1;stroke-width:0.248007;stroke-dasharray:none;fill-opacity:1" /><g
   id="text35440"
   transform="matrix(1.111101,0,0,1.176689,-111.52614,-209.13088)"
   style="stroke:none;stroke-opacity:1;stroke-width:0.248007;stroke-dasharray:none;fill:#ffffff">
			<path
   id="path177507"
   class="st3"
   d="m 156.6,340.7 v 7.8 h -1.9 v -7.8 h -2.8 v -1.6 h 7.5 v 1.6 z"
   style="stroke:none;stroke-opacity:1;stroke-width:0.248007;stroke-dasharray:none;fill:#ffffff" />
			<path
   id="path177509"
   class="st3"
   d="m 164.8,344.3 c 0,-0.9 -0.4,-1.3 -1.1,-1.3 -0.4,0 -0.7,0.1 -1,0.4 -0.3,0.3 -0.4,0.6 -0.4,1 v 4.2 h -1.8 v -9.4 h 1.8 v 3.4 c 0.5,-0.7 1.2,-1.1 2,-1.1 0.3,0 0.5,0 0.8,0.1 0.2,0.1 0.5,0.2 0.7,0.4 0.2,0.2 0.4,0.4 0.6,0.7 0.2,0.3 0.2,0.7 0.2,1.2 v 4.7 h -1.8 z"
   style="stroke:none;stroke-opacity:1;stroke-width:0.248007;stroke-dasharray:none;fill:#ffffff" />
			<path
   id="path177511"
   class="st3"
   d="m 171.1,341.4 c 0.3,0 0.6,0 0.9,0.1 0.3,0.1 0.6,0.2 0.9,0.4 0.3,0.2 0.6,0.4 0.8,0.7 0.2,0.3 0.4,0.6 0.5,1.1 0.1,0.5 0.2,1 0.2,1.6 0,0.1 0,0.2 0,0.3 h -4.7 c 0,0.3 0,0.5 0.1,0.7 0,0.2 0.1,0.4 0.2,0.6 0.1,0.2 0.2,0.3 0.4,0.4 0.2,0.1 0.4,0.1 0.7,0.1 0.7,0 1.1,-0.3 1.4,-0.9 h 1.8 c -0.2,0.7 -0.6,1.2 -1.2,1.7 -0.6,0.4 -1.3,0.6 -2.1,0.6 -1,0 -1.8,-0.3 -2.3,-1 -0.6,-0.6 -0.9,-1.5 -0.9,-2.6 0,-1.2 0.3,-2.1 0.9,-2.8 0.6,-0.6 1.4,-1 2.4,-1 z m 1.4,3 c 0,-0.5 -0.2,-0.9 -0.4,-1.2 -0.2,-0.3 -0.6,-0.4 -1,-0.4 -0.8,0 -1.2,0.5 -1.4,1.6 z"
   style="stroke:none;stroke-opacity:1;stroke-width:0.248007;stroke-dasharray:none;fill:#ffffff" />
			<path
   id="path177513"
   class="st3"
   d="m 182.8,341.4 c 0.8,0 1.5,0.3 2.1,1 0.6,0.7 0.8,1.6 0.8,2.6 0,1 -0.3,1.9 -0.8,2.6 -0.6,0.7 -1.3,1.1 -2.1,1.1 -0.9,0 -1.5,-0.3 -1.9,-1 v 0.7 H 179 V 339 h 1.8 v 3.3 c 0.5,-0.5 1.1,-0.9 2,-0.9 z m 0.7,2.2 c -0.3,-0.4 -0.6,-0.6 -1.1,-0.6 -0.5,0 -0.8,0.2 -1.1,0.6 -0.3,0.4 -0.4,0.9 -0.4,1.5 0,0.7 0.1,1.2 0.4,1.6 0.3,0.4 0.7,0.6 1.1,0.6 0.4,0 0.8,-0.2 1.1,-0.6 0.3,-0.4 0.4,-0.9 0.4,-1.6 0,-0.6 -0.1,-1.1 -0.4,-1.5 z"
   style="stroke:none;stroke-opacity:1;stroke-width:0.248007;stroke-dasharray:none;fill:#ffffff" />
			<path
   id="path177515"
   class="st3"
   d="m 189.8,341.4 c 0.3,0 0.6,0 0.9,0.1 0.3,0.1 0.6,0.2 0.9,0.4 0.3,0.2 0.6,0.4 0.8,0.7 0.2,0.3 0.4,0.6 0.5,1.1 0.1,0.5 0.2,1 0.2,1.6 0,0.1 0,0.2 0,0.3 h -4.7 c 0,0.3 0,0.5 0.1,0.7 0,0.2 0.1,0.4 0.2,0.6 0.1,0.2 0.2,0.3 0.4,0.4 0.2,0.1 0.4,0.1 0.7,0.1 0.7,0 1.1,-0.3 1.4,-0.9 h 1.8 c -0.2,0.7 -0.6,1.2 -1.2,1.7 -0.6,0.4 -1.3,0.6 -2.1,0.6 -1,0 -1.8,-0.3 -2.3,-1 -0.6,-0.6 -0.9,-1.5 -0.9,-2.6 0,-1.2 0.3,-2.1 0.9,-2.8 0.7,-0.6 1.4,-1 2.4,-1 z m 1.4,3 c 0,-0.5 -0.2,-0.9 -0.4,-1.2 -0.2,-0.3 -0.6,-0.4 -1,-0.4 -0.8,0 -1.2,0.5 -1.4,1.6 z"
   style="stroke:none;stroke-opacity:1;stroke-width:0.248007;stroke-dasharray:none;fill:#ffffff" />
			<path
   id="path177517"
   class="st3"
   d="m 195.7,346.5 c 0.1,0.3 0.2,0.5 0.4,0.7 0.2,0.2 0.5,0.2 1.1,0.2 0.4,0 0.7,-0.1 1,-0.2 0.2,-0.1 0.4,-0.3 0.4,-0.5 0,-0.1 0,-0.2 -0.1,-0.3 -0.1,-0.1 -0.2,-0.2 -0.5,-0.2 l -2.2,-0.7 c 0,0 -0.1,0 -0.2,0 -0.1,0 -0.2,-0.1 -0.2,-0.1 0,0 -0.1,0 -0.2,-0.1 -0.1,0 -0.2,-0.1 -0.2,-0.1 -0.1,0 -0.1,-0.1 -0.2,-0.2 -0.1,-0.1 -0.2,-0.1 -0.2,-0.2 0,-0.1 -0.1,-0.2 -0.1,-0.3 -0.1,-0.1 -0.1,-0.2 -0.1,-0.3 0,-0.1 0,-0.3 0,-0.4 0,-0.7 0.3,-1.3 0.8,-1.7 0.5,-0.4 1.2,-0.6 2.1,-0.6 0.9,0 1.7,0.2 2.2,0.6 0.5,0.4 0.8,1 0.8,1.7 h -1.7 c 0,-0.6 -0.4,-0.9 -1.3,-0.9 -0.3,0 -0.6,0.1 -0.8,0.2 -0.2,0.1 -0.3,0.3 -0.3,0.5 0,0.1 0,0.2 0.1,0.3 0.1,0.1 0.3,0.1 0.5,0.2 l 2.3,0.7 c 0.9,0.3 1.4,0.9 1.4,1.8 0,0.3 0,0.5 -0.1,0.8 -0.1,0.2 -0.2,0.5 -0.5,0.7 -0.2,0.2 -0.5,0.4 -0.9,0.6 -0.4,0.2 -0.9,0.2 -1.5,0.2 -2.1,0 -3.2,-0.8 -3.3,-2.3 z"
   style="stroke:none;stroke-opacity:1;stroke-width:0.248007;stroke-dasharray:none;fill:#ffffff" />
			<path
   id="path177519"
   class="st3"
   d="m 204.5,341.7 v 1.2 h -1 v 3.8 c 0,0.3 0,0.5 0.1,0.6 0.1,0.1 0.2,0.1 0.5,0.1 0.1,0 0.2,0 0.4,0 v 1.3 c -0.3,0.1 -0.6,0.1 -1,0.1 -1.2,0 -1.8,-0.5 -1.8,-1.6 v -4.3 h -0.9 v -1.2 h 0.9 v -1.9 h 1.8 v 1.9 z"
   style="stroke:none;stroke-opacity:1;stroke-width:0.248007;stroke-dasharray:none;fill:#ffffff" />
			<path
   id="path177521"
   class="st3"
   d="m 215.6,342.1 c -0.3,-1 -1.1,-1.5 -2.2,-1.5 -0.8,0 -1.5,0.3 -1.9,0.9 -0.5,0.6 -0.7,1.4 -0.7,2.4 0,1 0.2,1.8 0.7,2.4 0.5,0.6 1.2,0.9 1.9,0.9 0.1,0 0.3,0 0.4,0 0.2,0 0.4,-0.1 0.6,-0.2 0.2,-0.1 0.4,-0.2 0.6,-0.4 0.2,-0.1 0.4,-0.3 0.5,-0.6 0.1,-0.3 0.2,-0.6 0.3,-0.9 h -2.1 v -1.6 h 3.8 v 5.1 h -1.2 l -0.2,-1.2 c -0.4,0.5 -0.8,0.9 -1.2,1.1 -0.4,0.2 -1,0.4 -1.6,0.4 -1.3,0 -2.3,-0.5 -3.2,-1.4 -0.8,-0.9 -1.2,-2.1 -1.2,-3.5 0,-1.5 0.4,-2.6 1.3,-3.6 0.9,-1 1.9,-1.4 3.3,-1.4 1.1,0 2.1,0.3 2.8,0.9 0.7,0.6 1.2,1.3 1.3,2.3 z"
   style="stroke:none;stroke-opacity:1;stroke-width:0.248007;stroke-dasharray:none;fill:#ffffff" />
			<path
   id="path177523"
   class="st3"
   d="M 224.8,348.5 221,342 v 6.5 h -1.9 v -9.4 h 2 l 3.7,6.4 v -6.4 h 1.9 v 9.4 z"
   style="stroke:none;stroke-opacity:1;stroke-width:0.248007;stroke-dasharray:none;fill:#ffffff" />
			<path
   id="path177525"
   class="st3"
   d="m 233.4,348.7 c -0.3,0.1 -0.6,0.1 -1,0.1 -0.3,0 -0.7,0 -1,-0.1 -0.3,-0.1 -0.6,-0.2 -1,-0.3 -0.3,-0.2 -0.6,-0.4 -0.9,-0.6 -0.2,-0.2 -0.5,-0.6 -0.6,-1 -0.2,-0.4 -0.2,-0.9 -0.2,-1.4 V 339 h 1.9 v 6.4 c 0,1.1 0.6,1.7 1.8,1.7 1.2,0 1.8,-0.6 1.8,-1.7 V 339 h 1.9 v 6.4 c 0,0.5 -0.1,1 -0.2,1.4 -0.2,0.4 -0.4,0.7 -0.6,1 -0.2,0.2 -0.5,0.4 -0.9,0.6 -0.3,0.2 -0.7,0.3 -1,0.3 z"
   style="stroke:none;stroke-opacity:1;stroke-width:0.248007;stroke-dasharray:none;fill:#ffffff" />
			<path
   id="path177527"
   class="st3"
   d="m 239.8,339.3 h 0.9 l -2.7,9.4 h -0.9 z"
   style="stroke:none;stroke-opacity:1;stroke-width:0.248007;stroke-dasharray:none;fill:#ffffff" />
			<path
   id="path177529"
   class="st3"
   d="m 243.5,339.1 v 7.8 h 4.5 v 1.6 h -6.4 v -9.4 z"
   style="stroke:none;stroke-opacity:1;stroke-width:0.248007;stroke-dasharray:none;fill:#ffffff" />
			<path
   id="path177531"
   class="st3"
   d="m 251.1,341.5 v 7 h -1.8 v -7 z m 0,-2.4 v 1.6 h -1.8 v -1.6 z"
   style="stroke:none;stroke-opacity:1;stroke-width:0.248007;stroke-dasharray:none;fill:#ffffff" />
			<path
   id="path177533"
   class="st3"
   d="m 252.7,341.5 h 1.8 v 1 c 0.5,-0.7 1.2,-1.1 2.1,-1.1 0.7,0 1.3,0.2 1.7,0.6 0.4,0.4 0.6,1 0.6,1.8 v 4.7 h -1.8 v -4.3 c 0,-0.8 -0.4,-1.3 -1.2,-1.3 -0.4,0 -0.8,0.1 -1.1,0.4 -0.3,0.2 -0.4,0.6 -0.4,1 v 4.2 h -1.8 z"
   style="stroke:none;stroke-opacity:1;stroke-width:0.248007;stroke-dasharray:none;fill:#ffffff" />
			<path
   id="path177535"
   class="st3"
   d="M 266.8,348.5 H 265 v -0.8 c -0.5,0.7 -1.2,1.1 -2.1,1.1 -0.7,0 -1.3,-0.2 -1.7,-0.6 -0.4,-0.4 -0.6,-1 -0.6,-1.8 v -4.8 h 1.8 v 4.5 c 0,0.8 0.4,1.3 1.2,1.3 0.4,0 0.8,-0.1 1.1,-0.4 0.3,-0.3 0.4,-0.6 0.4,-1 v -4.4 h 1.8 v 6.9 z"
   style="stroke:none;stroke-opacity:1;stroke-width:0.248007;stroke-dasharray:none;fill:#ffffff" />
			<path
   id="path177537"
   class="st3"
   d="m 272.1,345 2.3,3.5 h -2.2 l -1.2,-2.2 -1.2,2.2 h -2.2 l 2.3,-3.5 -2.3,-3.5 h 2.2 l 1.1,2.1 1.1,-2.1 h 2.2 z"
   style="stroke:none;stroke-opacity:1;stroke-width:0.248007;stroke-dasharray:none;fill:#ffffff" />
			<path
   id="path177539"
   class="st3"
   d="m 281.7,342.9 c -1,0 -1.5,0.8 -1.5,2.3 0,0.7 0.1,1.2 0.4,1.6 0.3,0.4 0.6,0.6 1.1,0.6 0.4,0 0.6,-0.1 0.8,-0.3 0.2,-0.2 0.4,-0.5 0.5,-1 h 1.7 c -0.1,0.8 -0.4,1.5 -1,2 -0.5,0.5 -1.2,0.7 -2.1,0.7 -1,0 -1.8,-0.3 -2.4,-1 -0.6,-0.6 -0.9,-1.5 -0.9,-2.7 0,-1.2 0.3,-2.1 0.9,-2.8 0.6,-0.7 1.4,-1 2.4,-1 0.9,0 1.6,0.2 2.1,0.7 0.5,0.5 0.8,1.1 0.9,2 H 283 c -0.1,-0.5 -0.3,-0.8 -0.5,-1 -0.1,0 -0.4,-0.1 -0.8,-0.1 z"
   style="stroke:none;stroke-opacity:1;stroke-width:0.248007;stroke-dasharray:none;fill:#ffffff" />
			<path
   id="path177541"
   class="st3"
   d="m 288.9,341.4 c 1.1,0 1.9,0.3 2.5,1 0.6,0.7 0.9,1.6 0.9,2.7 0,1.1 -0.3,2 -0.9,2.7 -0.6,0.7 -1.5,1 -2.5,1 -1.1,0 -1.9,-0.3 -2.5,-1 -0.6,-0.7 -0.9,-1.6 -0.9,-2.7 0,-1.1 0.3,-2 0.9,-2.7 0.6,-0.6 1.5,-1 2.5,-1 z m 0.1,1.5 c -0.5,0 -0.9,0.2 -1.2,0.6 -0.3,0.4 -0.5,0.9 -0.5,1.6 0,0.7 0.2,1.2 0.5,1.6 0.3,0.4 0.7,0.6 1.2,0.6 0.5,0 0.9,-0.2 1.2,-0.6 0.3,-0.4 0.5,-0.9 0.5,-1.6 0,-0.7 -0.2,-1.2 -0.5,-1.6 -0.3,-0.4 -0.7,-0.6 -1.2,-0.6 z"
   style="stroke:none;stroke-opacity:1;stroke-width:0.248007;stroke-dasharray:none;fill:#ffffff" />
			<path
   id="path177543"
   class="st3"
   d="m 293.6,341.5 h 1.8 v 0.9 c 0.3,-0.4 0.6,-0.6 0.9,-0.7 0.3,-0.2 0.6,-0.2 1,-0.2 0.9,0 1.5,0.3 1.9,1 0.5,-0.7 1.2,-1 2,-1 0.7,0 1.2,0.2 1.6,0.6 0.4,0.4 0.6,0.9 0.6,1.6 v 4.9 h -1.8 V 344 c 0,-0.3 -0.1,-0.5 -0.3,-0.7 -0.2,-0.2 -0.4,-0.2 -0.7,-0.2 -0.4,0 -0.7,0.1 -0.9,0.4 -0.2,0.2 -0.3,0.6 -0.3,1 v 4.2 h -1.8 v -4.6 c 0,-0.3 -0.1,-0.5 -0.3,-0.7 -0.2,-0.2 -0.4,-0.2 -0.7,-0.2 -0.4,0 -0.7,0.1 -0.9,0.4 -0.2,0.2 -0.3,0.6 -0.3,1 v 4.2 h -1.8 z"
   style="stroke:none;stroke-opacity:1;stroke-width:0.248007;stroke-dasharray:none;fill:#ffffff" />
			<path
   id="path177545"
   class="st3"
   d="m 308.8,341.4 c 0.9,0 1.6,0.4 2.1,1.1 0.5,0.7 0.8,1.6 0.8,2.6 0,1.1 -0.3,1.9 -0.8,2.6 -0.6,0.7 -1.2,1 -2.1,1 -0.9,0 -1.5,-0.4 -1.9,-1.1 v 3.6 h -1.8 v -9.8 h 1.8 v 1 c 0.4,-0.6 1,-1 1.9,-1 z m 0.7,2.2 c -0.3,-0.4 -0.6,-0.6 -1.1,-0.6 -0.5,0 -0.8,0.2 -1.1,0.6 -0.3,0.4 -0.4,0.9 -0.4,1.6 0,0.7 0.1,1.2 0.4,1.6 0.3,0.4 0.7,0.6 1.1,0.6 0.4,0 0.8,-0.2 1.1,-0.6 0.3,-0.4 0.4,-0.9 0.4,-1.5 0,-0.8 -0.1,-1.3 -0.4,-1.7 z"
   style="stroke:none;stroke-opacity:1;stroke-width:0.248007;stroke-dasharray:none;fill:#ffffff" />
			<path
   id="path177547"
   class="st3"
   d="m 319.2,348.5 h -1.8 v -0.8 c -0.5,0.7 -1.2,1.1 -2.1,1.1 -0.7,0 -1.3,-0.2 -1.7,-0.6 -0.4,-0.4 -0.6,-1 -0.6,-1.8 v -4.8 h 1.8 v 4.5 c 0,0.8 0.4,1.3 1.2,1.3 0.4,0 0.8,-0.1 1.1,-0.4 0.3,-0.3 0.4,-0.6 0.4,-1 v -4.4 h 1.8 v 6.9 z"
   style="stroke:none;stroke-opacity:1;stroke-width:0.248007;stroke-dasharray:none;fill:#ffffff" />
			<path
   id="path177549"
   class="st3"
   d="m 323.9,341.7 v 1.2 h -1 v 3.8 c 0,0.3 0,0.5 0.1,0.6 0.1,0.1 0.2,0.1 0.5,0.1 0.1,0 0.2,0 0.4,0 v 1.3 c -0.3,0.1 -0.6,0.1 -1,0.1 -1.2,0 -1.8,-0.5 -1.8,-1.6 v -4.3 h -0.9 v -1.2 h 0.9 v -1.9 h 1.8 v 1.9 z"
   style="stroke:none;stroke-opacity:1;stroke-width:0.248007;stroke-dasharray:none;fill:#ffffff" />
			<path
   id="path177551"
   class="st3"
   d="m 327.9,341.4 c 0.3,0 0.6,0 0.9,0.1 0.3,0.1 0.6,0.2 0.9,0.4 0.3,0.2 0.6,0.4 0.8,0.7 0.2,0.3 0.4,0.6 0.5,1.1 0.1,0.5 0.2,1 0.2,1.6 0,0.1 0,0.2 0,0.3 h -4.7 c 0,0.3 0,0.5 0.1,0.7 0,0.2 0.1,0.4 0.2,0.6 0.1,0.2 0.2,0.3 0.4,0.4 0.2,0.1 0.4,0.1 0.7,0.1 0.7,0 1.1,-0.3 1.4,-0.9 h 1.8 c -0.2,0.7 -0.6,1.2 -1.2,1.7 -0.6,0.4 -1.3,0.6 -2.1,0.6 -1,0 -1.8,-0.3 -2.3,-1 -0.6,-0.6 -0.9,-1.5 -0.9,-2.6 0,-1.2 0.3,-2.1 0.9,-2.8 0.6,-0.6 1.4,-1 2.4,-1 z m 1.4,3 c 0,-0.5 -0.2,-0.9 -0.4,-1.2 -0.2,-0.3 -0.6,-0.4 -1,-0.4 -0.8,0 -1.2,0.5 -1.4,1.6 z"
   style="stroke:none;stroke-opacity:1;stroke-width:0.248007;stroke-dasharray:none;fill:#ffffff" />
			<path
   id="path177553"
   class="st3"
   d="m 332.4,341.5 h 1.8 v 1.4 c 0.2,-0.5 0.5,-0.8 0.8,-1.1 0.3,-0.3 0.7,-0.4 1.1,-0.4 0.1,0 0.2,0 0.2,0 v 1.8 c -0.2,0 -0.4,-0.1 -0.6,-0.1 -1.1,0 -1.6,0.5 -1.6,1.6 v 3.7 h -1.8 z"
   style="stroke:none;stroke-opacity:1;stroke-width:0.248007;stroke-dasharray:none;fill:#ffffff" />
			<path
   id="path177555"
   class="st3"
   d="m 338.6,346.5 c 0.1,0.3 0.2,0.5 0.4,0.7 0.2,0.2 0.5,0.2 1.1,0.2 0.4,0 0.7,-0.1 1,-0.2 0.2,-0.1 0.4,-0.3 0.4,-0.5 0,-0.1 0,-0.2 -0.1,-0.3 -0.1,-0.1 -0.2,-0.2 -0.5,-0.2 l -2.2,-0.7 c 0,0 -0.1,0 -0.2,0 -0.1,0 -0.2,-0.1 -0.2,-0.1 0,0 -0.1,0 -0.2,-0.1 -0.1,0 -0.2,-0.1 -0.2,-0.1 -0.1,0 -0.1,-0.1 -0.2,-0.2 -0.1,-0.1 -0.2,-0.1 -0.2,-0.2 0,-0.1 -0.1,-0.2 -0.1,-0.3 -0.1,-0.1 -0.1,-0.2 -0.1,-0.3 0,-0.1 0,-0.3 0,-0.4 0,-0.7 0.3,-1.3 0.8,-1.7 0.5,-0.4 1.2,-0.6 2.1,-0.6 0.9,0 1.7,0.2 2.2,0.6 0.5,0.4 0.8,1 0.8,1.7 h -1.7 c 0,-0.6 -0.4,-0.9 -1.3,-0.9 -0.3,0 -0.6,0.1 -0.8,0.2 -0.2,0.1 -0.3,0.3 -0.3,0.5 0,0.1 0,0.2 0.1,0.3 0.1,0.1 0.3,0.1 0.5,0.2 l 2.3,0.7 c 0.9,0.3 1.4,0.9 1.4,1.8 0,0.3 0,0.5 -0.1,0.8 -0.1,0.2 -0.2,0.5 -0.5,0.7 -0.2,0.2 -0.5,0.4 -0.9,0.6 -0.4,0.2 -0.9,0.2 -1.5,0.2 -2.1,0 -3.2,-0.8 -3.3,-2.3 z"
   style="stroke:none;stroke-opacity:1;stroke-width:0.248007;stroke-dasharray:none;fill:#ffffff" />
		</g>
</g>
</svg>
