<svg width="168" height="26" viewBox="0 0 168 26" fill="none" xmlns="http://www.w3.org/2000/svg">
<path d="M167.664 24.7195C167.354 24.7801 166.854 24.8483 166.179 24.9316C165.505 25.015 164.717 25.0907 163.808 25.1665C162.899 25.2423 161.876 25.318 160.747 25.3786C159.618 25.4392 158.444 25.4696 157.216 25.4696C154.769 25.4696 152.769 25.2574 151.216 24.8331C149.662 24.4088 148.443 23.8482 147.549 23.1436C146.655 22.4389 146.041 21.6207 145.715 20.6963C145.389 19.772 145.223 18.8249 145.223 17.8476C145.223 16.5595 145.42 15.4306 145.806 14.4608C146.2 13.491 146.844 12.6728 147.738 12.0136C148.632 11.3545 149.799 10.862 151.246 10.5286C152.685 10.2028 154.443 10.0361 156.512 10.0361C157.701 10.0361 158.83 10.074 159.898 10.1574C160.959 10.2331 161.762 10.3089 162.292 10.3695C162.292 9.27091 162.111 8.36173 161.755 7.64196C161.398 6.92218 160.898 6.35394 160.27 5.94481C159.641 5.53567 158.891 5.25534 158.012 5.09624C157.133 4.93713 156.163 4.86137 155.095 4.86137C153.307 4.86137 151.875 5.06593 150.791 5.47506C149.708 5.8842 148.996 6.22514 148.655 6.51305C148.465 6.35394 148.208 6.05846 147.874 5.61902C147.549 5.17958 147.382 4.64922 147.382 4.02037C147.382 3.58093 147.503 3.14906 147.73 2.72478C147.965 2.30049 148.382 1.92166 148.98 1.59587C149.571 1.27008 150.375 1.0049 151.375 0.815485C152.382 0.626071 153.648 0.535156 155.186 0.535156C157.034 0.535156 158.716 0.716998 160.239 1.0731C161.762 1.43677 163.065 2.005 164.164 2.79296C165.255 3.58092 166.119 4.61134 166.725 5.89935C167.331 7.18736 167.642 8.74055 167.642 10.5589V24.7195H167.664ZM162.353 14.279C162.042 14.2184 161.451 14.1199 160.588 13.9987C159.724 13.8699 158.428 13.8093 156.709 13.8093C154.58 13.8093 153.019 14.1275 152.057 14.7715C151.079 15.4155 150.602 16.4232 150.602 17.8021C150.602 18.3703 150.7 18.8855 150.905 19.3553C151.11 19.825 151.466 20.2266 151.966 20.5524C152.466 20.8782 153.148 21.1358 154.011 21.3025C154.875 21.4767 155.951 21.5601 157.231 21.5601C158.671 21.5601 159.823 21.507 160.664 21.3934C161.512 21.2873 162.073 21.1964 162.361 21.1358V14.279H162.353Z" fill="#231F20"/>
<path d="M117.894 10.5894C117.894 9.02109 118.182 7.61942 118.765 6.38445C119.349 5.14947 120.144 4.09633 121.167 3.2326C122.182 2.36888 123.395 1.70972 124.789 1.25513C126.183 0.800534 127.713 0.573242 129.373 0.573242C131.032 0.573242 132.57 0.800534 133.979 1.25513C135.388 1.70972 136.608 2.36888 137.623 3.2326C138.639 4.09633 139.434 5.14947 139.995 6.38445C140.563 7.61942 140.843 9.02866 140.843 10.5894V24.8409H135.487V11.9532C135.487 9.8242 134.964 8.19524 133.934 7.08906C132.903 5.97531 131.38 5.41465 129.373 5.41465C127.334 5.41465 125.804 5.97531 124.789 7.08906C123.773 8.20281 123.258 9.8242 123.258 11.9532V24.8409H117.894V10.5894Z" fill="#231F20"/>
<path d="M0.813721 9.65726C0.813721 8.14953 1.0789 6.83122 1.61683 5.70989C2.15477 4.58098 2.88211 3.6415 3.80645 2.88384C4.73079 2.13376 5.82181 1.55794 7.07194 1.17154C8.32207 0.777556 9.69343 0.580566 11.1633 0.580566C13.1104 0.580566 14.8455 0.93667 16.3835 1.66402C17.9216 2.38379 19.1414 3.45208 20.0506 4.86132C20.9597 3.45208 22.1644 2.38379 23.6721 1.66402C25.1799 0.944246 26.8846 0.580566 28.8015 0.580566C30.241 0.580566 31.5896 0.76998 32.8473 1.14881C34.0975 1.52763 35.1809 2.08829 36.0901 2.83837C36.9993 3.59603 37.7191 4.52794 38.257 5.65685C38.7873 6.78575 39.0601 8.10408 39.0601 9.60423V24.8482H33.6959V11.4453C33.6959 9.27843 33.211 7.73282 32.2412 6.80848C31.2714 5.88415 29.9531 5.42198 28.2938 5.42198C26.6952 5.42198 25.3541 5.93718 24.2707 6.97517C23.1872 8.01316 22.6493 9.68757 22.6493 12.006V24.8482H17.2851V12.006C17.2851 9.68757 16.7472 8.01316 15.6637 6.97517C14.5879 5.94476 13.2393 5.42198 11.6482 5.42198C10.0192 5.42198 8.7009 5.89172 7.70079 6.83121C6.69311 7.7707 6.19306 9.3239 6.19306 11.4908V24.8482H0.828877V9.65726H0.813721Z" fill="#231F20"/>
<path d="M44.5077 3.72511C44.5077 2.84623 44.7577 2.20979 45.2653 1.82339C45.7654 1.42941 46.47 1.23242 47.3792 1.23242C47.9399 1.23242 48.4551 1.30819 48.9324 1.44456C49.4021 1.58852 49.7204 1.68702 49.8719 1.74763V14.1201C49.8719 16.2491 50.3719 17.8781 51.3796 18.9918C52.3797 20.1056 53.9178 20.6587 55.9861 20.6587C58.0545 20.6587 59.5926 20.1056 60.5927 18.9918C61.6004 17.8781 62.1004 16.2567 62.1004 14.1201V3.72511C62.1004 2.84623 62.3504 2.20979 62.8505 1.82339C63.3505 1.42941 64.0476 1.23242 64.9189 1.23242C65.5099 1.23242 66.0478 1.30819 66.5175 1.44456C66.9873 1.58852 67.2979 1.68702 67.457 1.74763V15.2945C67.457 16.8931 67.1843 18.3327 66.6312 19.598C66.0857 20.8632 65.2977 21.9391 64.2825 22.818C63.2672 23.6969 62.0474 24.3636 60.6381 24.8182C59.2289 25.2728 57.6757 25.5001 55.9786 25.5001C54.289 25.5001 52.7358 25.2728 51.3266 24.8182C49.9173 24.3636 48.7051 23.6969 47.705 22.818C46.6973 21.9391 45.9169 20.8632 45.3487 19.598C44.788 18.3251 44.5001 16.8931 44.5001 15.2945V3.72511H44.5077Z" fill="#231F20"/>
<path d="M75.6245 2.95228C73.8516 4.53577 72.9651 6.77085 72.9651 9.65751H72.9727V24.8485H78.3369V11.2031C78.3369 7.32394 80.1704 5.37677 83.8374 5.37677C84.3083 5.37677 84.7288 5.40926 85.1236 5.4663C87.6104 5.99509 89.2079 7.05954 90.5814 8.22286C90.7773 7.5485 91.2372 6.26572 91.6599 5.51703C92.1351 4.67529 92.4715 4.17921 92.8648 3.74347C90.45 1.97531 87.3857 0.573278 83.2144 0.573278L83.2128 0.574589C83.1385 0.573692 83.0638 0.573242 82.9889 0.573242C79.8522 0.573242 77.3974 1.36878 75.6245 2.95228Z" fill="#231F20"/>
<path d="M96.7402 15.2035C96.7402 15.2035 96.3714 14.026 96.4931 12.6104L91.6517 9.20509C91.3134 10.4012 91.0806 11.7031 91.0806 12.9684C91.0806 17.5219 93.3687 21.439 96.8842 23.6286L100.263 20.1055C98.1646 18.8705 97.0585 16.7567 96.7402 15.2035Z" fill="url(#paint0_linear_256_6452)"/>
<path d="M110.696 19.0981C110.696 19.0981 109.984 19.6588 108.727 20.2801C107.211 21.0226 105.249 21.4317 102.847 21.0529C101.855 20.8938 100.998 20.5604 100.256 20.121L97.5113 21.0529L96.8768 23.6441C98.7255 24.7957 100.908 25.4928 103.309 25.4928C109.348 25.4928 112.469 21.9166 112.469 21.9166L112.206 20.121L110.696 19.0981Z" fill="url(#paint1_linear_256_6452)"/>
<path d="M115.462 16.7035C115.856 15.1882 114.871 14.6654 114.159 15.6655C111.668 18.8837 109.093 20.1044 109.093 20.1044L110.695 23.3278C113.613 21.554 114.977 18.5673 115.462 16.7035Z" fill="url(#paint2_linear_256_6452)"/>
<path d="M103.567 5.27825C107.355 5.27825 109.477 7.91489 109.12 9.14986L114.416 7.93004C114.28 7.05874 113.932 6.1344 113.189 5.10399C111.257 2.4219 107.673 0.588379 103.021 0.588379C99.8206 0.588379 96.3994 2.17534 94.1614 4.61856C94.1267 4.65641 92.5708 6.2154 91.6565 9.20459C93.4332 11.3395 96.4943 12.6089 96.4943 12.6089C96.5575 10.6988 97.3065 8.97625 98.1416 7.90883C98.9315 6.81826 100.633 5.27825 103.567 5.27825Z" fill="url(#paint3_linear_256_6452)"/>
<path d="M104.279 10.3317C106.772 10.559 108.772 10.3847 109.12 9.14976L114.416 7.92236C114.576 8.98308 114.401 9.9453 113.962 10.8015C113.204 12.294 110.757 14.1806 107.484 14.7337C105.837 15.012 103.594 14.856 101.476 14.4604C101.143 14.3982 99.7698 14.0443 98.0213 13.3055C97.9331 12.2795 98.4591 10.0321 99.4048 8.84245C101.014 9.64858 102.245 9.97577 102.404 10.0147C102.993 10.1594 103.615 10.2727 104.279 10.3317Z" fill="url(#paint4_linear_256_6452)"/>
<path d="M98.6875 7.25755C99.6166 6.29241 101.186 5.27825 103.567 5.27825C107.355 5.27825 109.477 7.91489 109.12 9.14986C108.977 9.65756 108.555 9.98599 107.934 10.1809C109.05 9.86013 110.49 8.93749 111.125 7.49819C112.198 5.06903 110.548 2.15667 106.382 0.933926C105.338 0.709109 104.215 0.588379 103.021 0.588379C100.174 0.588379 97.1532 1.84383 94.9452 3.84058L98.6875 7.25755Z" fill="url(#paint5_linear_256_6452)"/>
<defs>
<linearGradient id="paint0_linear_256_6452" x1="102.175" y1="23.6286" x2="92.8657" y2="15.8681" gradientUnits="userSpaceOnUse">
<stop stop-color="#FFC300"/>
<stop offset="1" stop-color="#FF7A00"/>
</linearGradient>
<linearGradient id="paint1_linear_256_6452" x1="106.778" y1="21.3923" x2="89.4572" y2="8.92826" gradientUnits="userSpaceOnUse">
<stop stop-color="#FFBB00"/>
<stop offset="1" stop-color="#FF7A00"/>
</linearGradient>
<linearGradient id="paint2_linear_256_6452" x1="119.053" y1="15.9704" x2="110.358" y2="22.415" gradientUnits="userSpaceOnUse">
<stop stop-color="#FF7A00"/>
<stop offset="1" stop-color="#FFBB00"/>
</linearGradient>
<linearGradient id="paint3_linear_256_6452" x1="123.494" y1="18.0003" x2="99.3808" y2="2.75607" gradientUnits="userSpaceOnUse">
<stop stop-color="#F8432E"/>
<stop offset="1" stop-color="#FF7A00"/>
</linearGradient>
<linearGradient id="paint4_linear_256_6452" x1="114.474" y1="5.43881" x2="99.4725" y2="12.1681" gradientUnits="userSpaceOnUse">
<stop stop-color="#FF6E00"/>
<stop offset="1" stop-color="#F8432E"/>
</linearGradient>
<linearGradient id="paint5_linear_256_6452" x1="121.339" y1="8.96233" x2="103.921" y2="9.05257" gradientUnits="userSpaceOnUse">
<stop stop-color="#8E1607"/>
<stop offset="1" stop-color="#A62415" stop-opacity="0"/>
</linearGradient>
</defs>
</svg>
