<svg version="1.1" id="svg2" x="0" y="0" viewBox="0 0 283.5 155.9" xml:space="preserve" xmlns="http://www.w3.org/2000/svg"><style type="text/css" id="style198">.st2{fill:#009bde}.st3{fill:#fff}</style><g id="g8" transform="translate(-76.225 -125.264) scale(1.33333)"><g id="g10" transform="matrix(1.06298 0 0 .99067 104.512 -6.572)" stroke="none" stroke-opacity="1" stroke-width=".248" stroke-dasharray="none" fill="#fff" fill-opacity="1" fill-rule="evenodd" clip-rule="evenodd"><path id="path80" d="M116.4 102.4c-14.2.2-31.6 6.8-40.3 6.6-8.1-.2-24.1-2.1-30.3 3.3-2.6 2.3 13.4 1.6 31.3 11.5 18.9 10.5 20 20.2 20 20.2s-9.7 8-12.8 15c4.7 0 5.7.1 5.7.1.7-1 1.7-2.1 2.6-3.3.9-1.1 2-2.3 3.2-3.4 1.2-1.1 2.5-2.2 4-3.1.7-.5 1.5-.9 2.3-1.4.8-.4 1.6-.8 2.5-1.2.9-.3 1.8-.7 2.7-.9.9-.3 1.9-.5 3-.6 1-.1 2-.2 3-.1s2 .2 2.9.4c1 .2 1.9.5 2.8.9.9.4 1.8.8 2.7 1.3.9.5 1.7 1 2.5 1.6.8.6 1.6 1.2 2.4 1.9 1.5 1.3 3 2.8 4.3 4.3 1.3 1.5 1.2 2.1 2.2 3.5h19.1s-1.9-43.2-23.2-54.2c-3.5-1.9-7.9-2.5-12.6-2.4zm-4.5 12c1.8 0 3.6.7 3.4 2.4-.2 1.5-1.7 1.9-3.3 2-1.8.1-3.2-.6-3.4-2.2 0-1.5 1.1-2.2 3.3-2.2zm-44.8.2c13.4-.1 19.9 2.2 23.3 4.2 4.5 2.6 2.7 5.5-1.8 4.7-7-1.3-6.4-4-21.5-8.9z"/><path id="path82" d="M116.4 102.4c-14.2.2-31.6 6.8-40.3 6.6-8.1-.2-24.1-2.1-30.3 3.3-2.6 2.3 13.4 1.6 31.3 11.5 18.9 10.5 20 20.2 20 20.2s-9.7 8-12.8 15c4.7 0 5.7.1 5.7.1.7-1 1.7-2.1 2.6-3.3.9-1.1 2-2.3 3.2-3.4 1.2-1.1 2.5-2.2 4-3.1.7-.5 1.5-.9 2.3-1.4.8-.4 1.6-.8 2.5-1.2.9-.3 1.8-.7 2.7-.9.9-.3 1.9-.5 3-.6 1-.1 2-.2 3-.1s2 .2 2.9.4c1 .2 1.9.5 2.8.9.9.4 1.8.8 2.7 1.3.9.5 1.7 1 2.5 1.6.8.6 1.6 1.2 2.4 1.9 1.5 1.3 3 2.8 4.3 4.3 1.3 1.5 1.2 2.1 2.2 3.5h19.1s-1.9-43.2-23.2-54.2c-3.5-1.9-7.9-2.5-12.6-2.4zm-4.5 12c1.8 0 3.6.7 3.4 2.4-.2 1.5-1.7 1.9-3.3 2-1.8.1-3.2-.6-3.4-2.2 0-1.5 1.1-2.2 3.3-2.2zm-44.8.2c13.4-.1 19.9 2.2 23.3 4.2 4.5 2.6 2.7 5.5-1.8 4.7-7-1.3-6.4-4-21.5-8.9z"/></g><path id="path123" class="st2" d="M57.9 185.8v-5.3h11c1.7 0 3.1-.4 4.2-1.2 1.1-.8 1.6-1.8 1.6-3 0-.6-.1-1.2-.4-1.7-.3-.5-.7-1-1.2-1.3-.5-.4-1.1-.7-1.8-.9-.7-.2-1.5-.3-2.3-.3h-2.5c-1.3 0-2.5-.2-3.6-.6-1.1-.4-2-1-2.8-1.7-.8-.7-1.4-1.6-1.9-2.6s-.7-2.1-.7-3.3c0-1.2.2-2.3.7-3.3.5-1 1.2-1.9 2-2.6.9-.7 1.9-1.3 3.1-1.7 1.2-.4 2.5-.7 4-.7h10.4v5.3H66.8c-1.2 0-2.1.3-2.7.9-.7.6-1 1.3-1 2.2 0 .9.3 1.7 1 2.3.7.6 1.6.9 2.7.9h3.1c1.4 0 2.7.2 3.9.7 1.2.4 2.2 1.1 3.1 1.9.9.8 1.5 1.8 2 2.9.5 1.1.7 2.4.7 3.7 0 1.4-.3 2.6-.8 3.8-.5 1.1-1.2 2.1-2.2 2.9-.9.8-2.1 1.5-3.4 1.9-1.3.5-2.8.7-4.4.7H57.9z" fill="#009bde" stroke="none" stroke-opacity="1" stroke-width=".248" stroke-dasharray="none" fill-opacity="1"/><path id="path125" class="st2" d="M82.3 185.8v-30.3h5.4v25h8.5v5.3z" fill="#009bde" stroke="none" stroke-opacity="1" stroke-width=".248" stroke-dasharray="none" fill-opacity="1"/><path id="path127" class="st2" d="M98.4 185.8v-30.3h5.5v30.3z" fill="#009bde" stroke="none" stroke-opacity="1" stroke-width=".248" stroke-dasharray="none" fill-opacity="1"/><path id="path129" class="st2" d="M125.2 156.9c.4-.6.8-1 1.4-1.2.6-.3 1.1-.4 1.7-.4.7 0 1.3.2 1.7.7.4.5.6 1.1.6 1.9v18.4l13.4-19.5c.4-.6.8-1 1.4-1.2.6-.3 1.2-.4 1.8-.4.7 0 1.3.2 1.7.7.4.5.6 1.1.6 1.9v27.9H144v-20.4l-12.2 18.6c-.5.7-.9 1.2-1.5 1.4-.5.3-1.1.4-1.6.4s-.9-.1-1.4-.2c-.4-.2-.8-.4-1.1-.7-.3-.3-.6-.7-.8-1.1-.2-.4-.3-.9-.3-1.4v-17l-13.4 20.4h-6.5z" fill="#009bde" stroke="none" stroke-opacity="1" stroke-width=".248" stroke-dasharray="none" fill-opacity="1"/><path id="path131" class="st2" d="M158.5 160.7v19.8h4.8c1.9 0 3.4-.3 4.6-.9 1.2-.6 1.8-1.5 1.8-2.8 0-1.3-.4-2.2-1.2-2.8-.8-.6-1.8-.9-3-.9h-3.8v-5.2h3.8c1.2 0 2.1-.3 2.8-.9.7-.6 1-1.5 1-2.7 0-1.2-.5-2.1-1.4-2.7-.9-.5-2.4-.8-4.6-.8zm11.9 9.1c.8.4 1.5.8 2.1 1.4.6.5 1.1 1.1 1.4 1.7.3.6.6 1.3.7 1.9.2.7.2 1.3.2 1.9 0 1.2-.3 2.4-.8 3.5s-1.2 2-2.3 2.9c-1 .8-2.3 1.4-3.9 1.9s-3.4.7-5.5.7H153v-30.3h10.6c3.5 0 6.2.6 8 1.9 1.8 1.3 2.8 3.3 2.8 5.9 0 .6-.1 1.2-.2 1.9-.1.6-.3 1.2-.6 1.8-.3.6-.7 1.1-1.2 1.6-.6.6-1.2 1-2 1.3z" fill="#009bde" stroke="none" stroke-opacity="1" stroke-width=".248" stroke-dasharray="none" fill-opacity="1"/><path id="path133" class="st2" d="M191 185.6c-2.1 0-4.1-.4-5.9-1.2-1.8-.8-3.3-1.9-4.6-3.3-1.3-1.4-2.3-3-3-4.9-.7-1.9-1.1-3.9-1.1-6.1 0-2.2.3-4.1 1-6 .7-1.8 1.7-3.4 2.9-4.7 1.3-1.3 2.8-2.3 4.6-3.1 1.8-.7 3.8-1.1 5.9-1.1h.8c2.2 0 4.2.4 5.9 1.1 1.8.7 3.3 1.7 4.6 3.1 1.3 1.3 2.3 2.9 2.9 4.7.7 1.8 1 3.8 1 5.9 0 2.2-.4 4.2-1.1 6.1-.7 1.9-1.7 3.5-3 4.9-1.3 1.4-2.8 2.5-4.6 3.3-1.8.8-3.7 1.2-5.8 1.2zm0-24.9c-1.4 0-2.6.2-3.8.7-1.2.5-2.2 1.2-3 2-.8.9-1.5 1.9-2 3.1-.5 1.2-.7 2.6-.7 4s.2 2.7.7 3.9c.5 1.2 1.1 2.2 2 3.1.8.9 1.8 1.5 3 2s2.5.7 3.9.7h.8c1.4 0 2.7-.2 3.9-.7 1.2-.5 2.2-1.2 3-2 .8-.9 1.5-1.9 1.9-3.1.5-1.2.7-2.5.7-3.9s-.2-2.8-.7-4c-.5-1.2-1.1-2.3-2-3.1-.8-.9-1.8-1.6-3-2.1s-2.4-.7-3.8-.7h-.9z" fill="#009bde" stroke="none" stroke-opacity="1" stroke-width=".248" stroke-dasharray="none" fill-opacity="1"/><path id="path135" class="st2" d="M223.3 185.8c-2.1 0-4.1-.4-5.9-1.2-1.8-.8-3.3-1.9-4.6-3.3-1.3-1.4-2.3-3-3-4.9-.7-1.9-1.1-3.9-1.1-6.1 0-2.2.3-4.2 1-6 .7-1.8 1.7-3.4 2.9-4.7 1.3-1.3 2.8-2.3 4.6-3.1 1.8-.7 3.8-1.1 5.9-1.1h.8c2.2 0 4.2.4 5.9 1.1 1.8.7 3.3 1.7 4.6 3.1 1.3 1.3 2.3 2.9 2.9 4.7.7 1.8 1 3.8 1 5.9 0 2.2-.4 4.2-1.1 6.1-.7 1.9-1.7 3.5-3 4.9-1.3 1.4-2.8 2.5-4.6 3.3-1.8.8-3.7 1.2-5.8 1.2h-.5zm0-25c-1.4 0-2.6.2-3.8.7-1.2.5-2.2 1.2-3 2.1-.8.9-1.5 1.9-2 3.1-.5 1.2-.7 2.6-.7 4s.2 2.7.7 3.9c.5 1.2 1.1 2.2 2 3.1.8.9 1.8 1.5 3 2s2.5.7 3.9.7h.8c1.4 0 2.7-.2 3.9-.7 1.2-.5 2.2-1.2 3-2 .8-.9 1.5-1.9 1.9-3.1.5-1.2.7-2.5.7-3.9s-.2-2.8-.7-4c-.5-1.2-1.1-2.3-2-3.1-.8-.9-1.8-1.6-3-2.1s-2.4-.7-3.8-.7z" fill="#009bde" stroke="none" stroke-opacity="1" stroke-width=".248" stroke-dasharray="none" fill-opacity="1"/><path id="path137" class="st2" d="M253.8 173.5l-7.3 10.9c-.4.6-.8 1-1.4 1.2-.5.2-1.1.3-1.7.3-.7 0-1.3-.2-1.7-.7-.4-.5-.6-1.1-.6-1.9v-27.9h5.5v20.4l13.4-20.4h6.5l-9.3 13.3 12.8 16.9h-7.4z" fill="#009bde" stroke="none" stroke-opacity="1" stroke-width=".248" stroke-dasharray="none" fill-opacity="1"/><g id="text35440" transform="matrix(1.1111 0 0 1.17669 -111.526 -209.13)" stroke="none" stroke-opacity="1" stroke-width=".248" stroke-dasharray="none" fill="#fff"><path id="path177507" class="st3" d="M156.6 340.7v7.8h-1.9v-7.8h-2.8v-1.6h7.5v1.6z" stroke="none" stroke-opacity="1" stroke-width=".248" stroke-dasharray="none" fill="#fff"/><path id="path177509" class="st3" d="M164.8 344.3c0-.9-.4-1.3-1.1-1.3-.4 0-.7.1-1 .4-.3.3-.4.6-.4 1v4.2h-1.8v-9.4h1.8v3.4c.5-.7 1.2-1.1 2-1.1.3 0 .5 0 .8.1.2.1.5.2.7.4.2.2.4.4.6.7.2.3.2.7.2 1.2v4.7h-1.8z" stroke="none" stroke-opacity="1" stroke-width=".248" stroke-dasharray="none" fill="#fff"/><path id="path177511" class="st3" d="M171.1 341.4c.3 0 .6 0 .9.1.3.1.6.2.9.4.3.2.6.4.8.7.2.3.4.6.5 1.1.1.5.2 1 .2 1.6v.3h-4.7c0 .3 0 .5.1.7 0 .2.1.4.2.6.1.2.2.3.4.4.2.1.4.1.7.1.7 0 1.1-.3 1.4-.9h1.8c-.2.7-.6 1.2-1.2 1.7-.6.4-1.3.6-2.1.6-1 0-1.8-.3-2.3-1-.6-.6-.9-1.5-.9-2.6 0-1.2.3-2.1.9-2.8.6-.6 1.4-1 2.4-1zm1.4 3c0-.5-.2-.9-.4-1.2-.2-.3-.6-.4-1-.4-.8 0-1.2.5-1.4 1.6z" stroke="none" stroke-opacity="1" stroke-width=".248" stroke-dasharray="none" fill="#fff"/><path id="path177513" class="st3" d="M182.8 341.4c.8 0 1.5.3 2.1 1 .6.7.8 1.6.8 2.6s-.3 1.9-.8 2.6c-.6.7-1.3 1.1-2.1 1.1-.9 0-1.5-.3-1.9-1v.7H179V339h1.8v3.3c.5-.5 1.1-.9 2-.9zm.7 2.2c-.3-.4-.6-.6-1.1-.6-.5 0-.8.2-1.1.6-.3.4-.4.9-.4 1.5 0 .7.1 1.2.4 1.6.3.4.7.6 1.1.6.4 0 .8-.2 1.1-.6.3-.4.4-.9.4-1.6 0-.6-.1-1.1-.4-1.5z" stroke="none" stroke-opacity="1" stroke-width=".248" stroke-dasharray="none" fill="#fff"/><path id="path177515" class="st3" d="M189.8 341.4c.3 0 .6 0 .9.1.3.1.6.2.9.4.3.2.6.4.8.7.2.3.4.6.5 1.1.1.5.2 1 .2 1.6v.3h-4.7c0 .3 0 .5.1.7 0 .2.1.4.2.6.1.2.2.3.4.4.2.1.4.1.7.1.7 0 1.1-.3 1.4-.9h1.8c-.2.7-.6 1.2-1.2 1.7-.6.4-1.3.6-2.1.6-1 0-1.8-.3-2.3-1-.6-.6-.9-1.5-.9-2.6 0-1.2.3-2.1.9-2.8.7-.6 1.4-1 2.4-1zm1.4 3c0-.5-.2-.9-.4-1.2-.2-.3-.6-.4-1-.4-.8 0-1.2.5-1.4 1.6z" stroke="none" stroke-opacity="1" stroke-width=".248" stroke-dasharray="none" fill="#fff"/><path id="path177517" class="st3" d="M195.7 346.5c.1.3.2.5.4.7.2.2.5.2 1.1.2.4 0 .7-.1 1-.2.2-.1.4-.3.4-.5 0-.1 0-.2-.1-.3-.1-.1-.2-.2-.5-.2l-2.2-.7h-.2c-.1 0-.2-.1-.2-.1s-.1 0-.2-.1c-.1 0-.2-.1-.2-.1-.1 0-.1-.1-.2-.2s-.2-.1-.2-.2-.1-.2-.1-.3c-.1-.1-.1-.2-.1-.3v-.4c0-.7.3-1.3.8-1.7.5-.4 1.2-.6 2.1-.6.9 0 1.7.2 2.2.6.5.4.8 1 .8 1.7h-1.7c0-.6-.4-.9-1.3-.9-.3 0-.6.1-.8.2-.2.1-.3.3-.3.5 0 .1 0 .2.1.3.1.1.3.1.5.2l2.3.7c.9.3 1.4.9 1.4 1.8 0 .3 0 .5-.1.8-.1.2-.2.5-.5.7-.2.2-.5.4-.9.6-.4.2-.9.2-1.5.2-2.1 0-3.2-.8-3.3-2.3z" stroke="none" stroke-opacity="1" stroke-width=".248" stroke-dasharray="none" fill="#fff"/><path id="path177519" class="st3" d="M204.5 341.7v1.2h-1v3.8c0 .3 0 .5.1.6.1.1.2.1.5.1h.4v1.3c-.3.1-.6.1-1 .1-1.2 0-1.8-.5-1.8-1.6v-4.3h-.9v-1.2h.9v-1.9h1.8v1.9z" stroke="none" stroke-opacity="1" stroke-width=".248" stroke-dasharray="none" fill="#fff"/><path id="path177521" class="st3" d="M215.6 342.1c-.3-1-1.1-1.5-2.2-1.5-.8 0-1.5.3-1.9.9-.5.6-.7 1.4-.7 2.4s.2 1.8.7 2.4c.5.6 1.2.9 1.9.9h.4c.2 0 .4-.1.6-.2.2-.1.4-.2.6-.4.2-.1.4-.3.5-.6l.3-.9h-2.1v-1.6h3.8v5.1h-1.2l-.2-1.2c-.4.5-.8.9-1.2 1.1-.4.2-1 .4-1.6.4-1.3 0-2.3-.5-3.2-1.4-.8-.9-1.2-2.1-1.2-3.5 0-1.5.4-2.6 1.3-3.6s1.9-1.4 3.3-1.4c1.1 0 2.1.3 2.8.9.7.6 1.2 1.3 1.3 2.3z" stroke="none" stroke-opacity="1" stroke-width=".248" stroke-dasharray="none" fill="#fff"/><path id="path177523" class="st3" d="M224.8 348.5L221 342v6.5h-1.9v-9.4h2l3.7 6.4v-6.4h1.9v9.4z" stroke="none" stroke-opacity="1" stroke-width=".248" stroke-dasharray="none" fill="#fff"/><path id="path177525" class="st3" d="M233.4 348.7c-.3.1-.6.1-1 .1-.3 0-.7 0-1-.1-.3-.1-.6-.2-1-.3l-.9-.6c-.2-.2-.5-.6-.6-1-.2-.4-.2-.9-.2-1.4V339h1.9v6.4c0 1.1.6 1.7 1.8 1.7 1.2 0 1.8-.6 1.8-1.7V339h1.9v6.4c0 .5-.1 1-.2 1.4-.2.4-.4.7-.6 1-.2.2-.5.4-.9.6-.3.2-.7.3-1 .3z" stroke="none" stroke-opacity="1" stroke-width=".248" stroke-dasharray="none" fill="#fff"/><path id="path177527" class="st3" d="M239.8 339.3h.9l-2.7 9.4h-.9z" stroke="none" stroke-opacity="1" stroke-width=".248" stroke-dasharray="none" fill="#fff"/><path id="path177529" class="st3" d="M243.5 339.1v7.8h4.5v1.6h-6.4v-9.4z" stroke="none" stroke-opacity="1" stroke-width=".248" stroke-dasharray="none" fill="#fff"/><path id="path177531" class="st3" d="M251.1 341.5v7h-1.8v-7zm0-2.4v1.6h-1.8v-1.6z" stroke="none" stroke-opacity="1" stroke-width=".248" stroke-dasharray="none" fill="#fff"/><path id="path177533" class="st3" d="M252.7 341.5h1.8v1c.5-.7 1.2-1.1 2.1-1.1.7 0 1.3.2 1.7.6.4.4.6 1 .6 1.8v4.7h-1.8v-4.3c0-.8-.4-1.3-1.2-1.3-.4 0-.8.1-1.1.4-.3.2-.4.6-.4 1v4.2h-1.8z" stroke="none" stroke-opacity="1" stroke-width=".248" stroke-dasharray="none" fill="#fff"/><path id="path177535" class="st3" d="M266.8 348.5H265v-.8c-.5.7-1.2 1.1-2.1 1.1-.7 0-1.3-.2-1.7-.6-.4-.4-.6-1-.6-1.8v-4.8h1.8v4.5c0 .8.4 1.3 1.2 1.3.4 0 .8-.1 1.1-.4.3-.3.4-.6.4-1v-4.4h1.8v6.9z" stroke="none" stroke-opacity="1" stroke-width=".248" stroke-dasharray="none" fill="#fff"/><path id="path177537" class="st3" d="M272.1 345l2.3 3.5h-2.2l-1.2-2.2-1.2 2.2h-2.2l2.3-3.5-2.3-3.5h2.2l1.1 2.1 1.1-2.1h2.2z" stroke="none" stroke-opacity="1" stroke-width=".248" stroke-dasharray="none" fill="#fff"/><path id="path177539" class="st3" d="M281.7 342.9c-1 0-1.5.8-1.5 2.3 0 .7.1 1.2.4 1.6.3.4.6.6 1.1.6.4 0 .6-.1.8-.3.2-.2.4-.5.5-1h1.7c-.1.8-.4 1.5-1 2-.5.5-1.2.7-2.1.7-1 0-1.8-.3-2.4-1-.6-.6-.9-1.5-.9-2.7 0-1.2.3-2.1.9-2.8.6-.7 1.4-1 2.4-1 .9 0 1.6.2 2.1.7.5.5.8 1.1.9 2H283c-.1-.5-.3-.8-.5-1-.1 0-.4-.1-.8-.1z" stroke="none" stroke-opacity="1" stroke-width=".248" stroke-dasharray="none" fill="#fff"/><path id="path177541" class="st3" d="M288.9 341.4c1.1 0 1.9.3 2.5 1 .6.7.9 1.6.9 2.7s-.3 2-.9 2.7c-.6.7-1.5 1-2.5 1-1.1 0-1.9-.3-2.5-1-.6-.7-.9-1.6-.9-2.7s.3-2 .9-2.7c.6-.6 1.5-1 2.5-1zm.1 1.5c-.5 0-.9.2-1.2.6-.3.4-.5.9-.5 1.6 0 .7.2 1.2.5 1.6.3.4.7.6 1.2.6s.9-.2 1.2-.6c.3-.4.5-.9.5-1.6 0-.7-.2-1.2-.5-1.6-.3-.4-.7-.6-1.2-.6z" stroke="none" stroke-opacity="1" stroke-width=".248" stroke-dasharray="none" fill="#fff"/><path id="path177543" class="st3" d="M293.6 341.5h1.8v.9c.3-.4.6-.6.9-.7.3-.2.6-.2 1-.2.9 0 1.5.3 1.9 1 .5-.7 1.2-1 2-1 .7 0 1.2.2 1.6.6.4.4.6.9.6 1.6v4.9h-1.8V344c0-.3-.1-.5-.3-.7-.2-.2-.4-.2-.7-.2-.4 0-.7.1-.9.4-.2.2-.3.6-.3 1v4.2h-1.8v-4.6c0-.3-.1-.5-.3-.7-.2-.2-.4-.2-.7-.2-.4 0-.7.1-.9.4-.2.2-.3.6-.3 1v4.2h-1.8z" stroke="none" stroke-opacity="1" stroke-width=".248" stroke-dasharray="none" fill="#fff"/><path id="path177545" class="st3" d="M308.8 341.4c.9 0 1.6.4 2.1 1.1.5.7.8 1.6.8 2.6 0 1.1-.3 1.9-.8 2.6-.6.7-1.2 1-2.1 1-.9 0-1.5-.4-1.9-1.1v3.6h-1.8v-9.8h1.8v1c.4-.6 1-1 1.9-1zm.7 2.2c-.3-.4-.6-.6-1.1-.6-.5 0-.8.2-1.1.6-.3.4-.4.9-.4 1.6 0 .7.1 1.2.4 1.6.3.4.7.6 1.1.6.4 0 .8-.2 1.1-.6.3-.4.4-.9.4-1.5 0-.8-.1-1.3-.4-1.7z" stroke="none" stroke-opacity="1" stroke-width=".248" stroke-dasharray="none" fill="#fff"/><path id="path177547" class="st3" d="M319.2 348.5h-1.8v-.8c-.5.7-1.2 1.1-2.1 1.1-.7 0-1.3-.2-1.7-.6-.4-.4-.6-1-.6-1.8v-4.8h1.8v4.5c0 .8.4 1.3 1.2 1.3.4 0 .8-.1 1.1-.4.3-.3.4-.6.4-1v-4.4h1.8v6.9z" stroke="none" stroke-opacity="1" stroke-width=".248" stroke-dasharray="none" fill="#fff"/><path id="path177549" class="st3" d="M323.9 341.7v1.2h-1v3.8c0 .3 0 .5.1.6.1.1.2.1.5.1h.4v1.3c-.3.1-.6.1-1 .1-1.2 0-1.8-.5-1.8-1.6v-4.3h-.9v-1.2h.9v-1.9h1.8v1.9z" stroke="none" stroke-opacity="1" stroke-width=".248" stroke-dasharray="none" fill="#fff"/><path id="path177551" class="st3" d="M327.9 341.4c.3 0 .6 0 .9.1.3.1.6.2.9.4.3.2.6.4.8.7.2.3.4.6.5 1.1.1.5.2 1 .2 1.6v.3h-4.7c0 .3 0 .5.1.7 0 .2.1.4.2.6.1.2.2.3.4.4.2.1.4.1.7.1.7 0 1.1-.3 1.4-.9h1.8c-.2.7-.6 1.2-1.2 1.7-.6.4-1.3.6-2.1.6-1 0-1.8-.3-2.3-1-.6-.6-.9-1.5-.9-2.6 0-1.2.3-2.1.9-2.8.6-.6 1.4-1 2.4-1zm1.4 3c0-.5-.2-.9-.4-1.2-.2-.3-.6-.4-1-.4-.8 0-1.2.5-1.4 1.6z" stroke="none" stroke-opacity="1" stroke-width=".248" stroke-dasharray="none" fill="#fff"/><path id="path177553" class="st3" d="M332.4 341.5h1.8v1.4c.2-.5.5-.8.8-1.1.3-.3.7-.4 1.1-.4h.2v1.8c-.2 0-.4-.1-.6-.1-1.1 0-1.6.5-1.6 1.6v3.7h-1.8z" stroke="none" stroke-opacity="1" stroke-width=".248" stroke-dasharray="none" fill="#fff"/><path id="path177555" class="st3" d="M338.6 346.5c.1.3.2.5.4.7.2.2.5.2 1.1.2.4 0 .7-.1 1-.2.2-.1.4-.3.4-.5 0-.1 0-.2-.1-.3-.1-.1-.2-.2-.5-.2l-2.2-.7h-.2c-.1 0-.2-.1-.2-.1s-.1 0-.2-.1c-.1 0-.2-.1-.2-.1-.1 0-.1-.1-.2-.2s-.2-.1-.2-.2-.1-.2-.1-.3c-.1-.1-.1-.2-.1-.3v-.4c0-.7.3-1.3.8-1.7.5-.4 1.2-.6 2.1-.6.9 0 1.7.2 2.2.6.5.4.8 1 .8 1.7h-1.7c0-.6-.4-.9-1.3-.9-.3 0-.6.1-.8.2-.2.1-.3.3-.3.5 0 .1 0 .2.1.3.1.1.3.1.5.2l2.3.7c.9.3 1.4.9 1.4 1.8 0 .3 0 .5-.1.8-.1.2-.2.5-.5.7-.2.2-.5.4-.9.6-.4.2-.9.2-1.5.2-2.1 0-3.2-.8-3.3-2.3z" stroke="none" stroke-opacity="1" stroke-width=".248" stroke-dasharray="none" fill="#fff"/></g></g></svg>